<svg width="24" height="24" viewBox="0 0 24 24" fill="none" xmlns="http://www.w3.org/2000/svg">
<path d="M16.211 11.1051L9.737 7.86709C9.55398 7.77551 9.35058 7.73226 9.14614 7.74144C8.94169 7.75063 8.74299 7.81195 8.56892 7.91958C8.39485 8.02721 8.2512 8.17756 8.15163 8.35636C8.05205 8.53515 7.99985 8.73644 8 8.94109V15.0571C7.99985 15.2617 8.05205 15.463 8.15163 15.6418C8.2512 15.8206 8.39485 15.971 8.56892 16.0786C8.74299 16.1862 8.94169 16.2476 9.14614 16.2567C9.35058 16.2659 9.55398 16.2227 9.737 16.1311L16.211 12.8931C16.3769 12.81 16.5164 12.6823 16.6138 12.5244C16.7113 12.3665 16.7629 12.1846 16.7629 11.9991C16.7629 11.8135 16.7113 11.6317 16.6138 11.4738C16.5164 11.3159 16.3769 11.1882 16.211 11.1051Z" stroke="white" stroke-width="2" stroke-linecap="round" stroke-linejoin="round"/>
<path d="M12 21C16.9706 21 21 16.9706 21 12C21 7.02944 16.9706 3 12 3C7.02944 3 3 7.02944 3 12C3 16.9706 7.02944 21 12 21Z" stroke="white" stroke-width="2"/>
</svg>
