<svg width="24" height="24" viewBox="0 0 24 24" fill="none" xmlns="http://www.w3.org/2000/svg">
<mask id="mask0_1564_974" style="mask-type:luminance" maskUnits="userSpaceOnUse" x="0" y="0" width="24" height="24">
<path d="M0 0H24V24H0V0Z" fill="white"/>
</mask>
<g mask="url(#mask0_1564_974)">
<path d="M11.9992 22.4985C18.9998 22.4985 22.4985 17.7975 22.4985 11.9985C22.4985 6.201 18.9998 1.5 11.9985 1.5C4.99875 1.5 1.5 6.201 1.5 11.9992C1.5 17.7975 4.998 22.4985 11.9992 22.4985Z" fill="url(#paint0_radial_1564_974)"/>
<path d="M11.9992 22.4985C18.9998 22.4985 22.4985 17.7975 22.4985 11.9985C22.4985 6.201 18.9998 1.5 11.9985 1.5C4.99875 1.5 1.5 6.201 1.5 11.9992C1.5 17.7975 4.998 22.4985 11.9992 22.4985Z" fill="url(#paint1_radial_1564_974)" fill-opacity="0.6"/>
<path d="M9 19.5C9.24975 18.9998 10.2 18 12 18C13.8 18 14.7502 18.9998 15 19.5" stroke="url(#paint2_linear_1564_974)" stroke-width="2" stroke-linecap="round"/>
<path d="M6.75 18C8.82107 18 10.5 16.3211 10.5 14.25C10.5 12.1789 8.82107 10.5 6.75 10.5C4.67893 10.5 3 12.1789 3 14.25C3 16.3211 4.67893 18 6.75 18Z" fill="url(#paint3_radial_1564_974)"/>
<path d="M14.625 18C16.489 18 18 16.489 18 14.625C18 12.761 16.489 11.25 14.625 11.25C12.761 11.25 11.25 12.761 11.25 14.625C11.25 16.489 12.761 18 14.625 18Z" fill="url(#paint4_radial_1564_974)"/>
<path d="M7.875 16.5C8.31821 16.5 8.75708 16.4127 9.16656 16.2431C9.57603 16.0735 9.94809 15.8249 10.2615 15.5115C10.5749 15.1981 10.8235 14.826 10.9931 14.4166C11.1627 14.0071 11.25 13.5682 11.25 13.125C11.25 12.6818 11.1627 12.2429 10.9931 11.8334C10.8235 11.424 10.5749 11.0519 10.2615 10.7385C9.94809 10.4251 9.57603 10.1765 9.16656 10.0069C8.75708 9.8373 8.31821 9.75 7.875 9.75C6.97989 9.75 6.12145 10.1056 5.48851 10.7385C4.85558 11.3715 4.5 12.2299 4.5 13.125C4.5 14.0201 4.85558 14.8786 5.48851 15.5115C6.12145 16.1444 6.97989 16.5 7.875 16.5ZM16.125 16.5C16.5682 16.5 17.0071 16.4127 17.4166 16.2431C17.826 16.0735 18.1981 15.8249 18.5115 15.5115C18.8249 15.1981 19.0735 14.826 19.2431 14.4166C19.4127 14.0071 19.5 13.5682 19.5 13.125C19.5 12.6818 19.4127 12.2429 19.2431 11.8334C19.0735 11.424 18.8249 11.0519 18.5115 10.7385C18.1981 10.4251 17.826 10.1765 17.4166 10.0069C17.0071 9.8373 16.5682 9.75 16.125 9.75C15.2299 9.75 14.3715 10.1056 13.7385 10.7385C13.1056 11.3715 12.75 12.2299 12.75 13.125C12.75 14.0201 13.1056 14.8786 13.7385 15.5115C14.3715 16.1444 15.2299 16.5 16.125 16.5Z" fill="white"/>
<path d="M9 15C9.39782 15 9.77936 14.842 10.0607 14.5607C10.342 14.2794 10.5 13.8978 10.5 13.5C10.5 13.1022 10.342 12.7206 10.0607 12.4393C9.77936 12.158 9.39782 12 9 12C8.60218 12 8.22064 12.158 7.93934 12.4393C7.65804 12.7206 7.5 13.1022 7.5 13.5C7.5 13.8978 7.65804 14.2794 7.93934 14.5607C8.22064 14.842 8.60218 15 9 15Z" fill="url(#paint5_linear_1564_974)"/>
<path d="M15 15C15.3978 15 15.7794 14.842 16.0607 14.5607C16.342 14.2794 16.5 13.8978 16.5 13.5C16.5 13.1022 16.342 12.7206 16.0607 12.4393C15.7794 12.158 15.3978 12 15 12C14.6022 12 14.2206 12.158 13.9393 12.4393C13.658 12.7206 13.5 13.1022 13.5 13.5C13.5 13.8978 13.658 14.2794 13.9393 14.5607C14.2206 14.842 14.6022 15 15 15Z" fill="url(#paint6_linear_1564_974)"/>
<path d="M7.6875 8.4375C7.6875 8.4375 8.25 10.6875 10.6875 10.6875" stroke="url(#paint7_linear_1564_974)" stroke-width="1.5" stroke-linecap="round" stroke-linejoin="round"/>
<path d="M16.3125 8.4375C16.3125 8.4375 15.75 10.6875 13.3125 10.6875" stroke="url(#paint8_linear_1564_974)" stroke-width="1.5" stroke-linecap="round" stroke-linejoin="round"/>
<path d="M6.00024 4.49975C6.00024 4.49975 4.20624 3.95 3.34374 2.42C3.13374 2.0375 2.89374 2.42 2.89374 2.42C2.89374 2.42 1.38774 5.24975 3.00024 8.24975C3.19524 8.76725 4.13274 8.99975 4.87524 8.99975C6.21774 8.99975 7.20624 7.85 7.20624 6.515C7.21374 5.6 6.81024 4.76975 6.00024 4.49975Z" fill="url(#paint9_radial_1564_974)"/>
<path d="M18.0044 4.49975C18.0044 4.49975 19.7984 3.95 20.6609 2.42C20.8709 2.0375 21.1109 2.42 21.1109 2.42C21.1109 2.42 22.6169 5.24975 21.0044 8.24975C20.8094 8.76725 19.8719 8.99975 19.1294 8.99975C17.7869 8.99975 16.7984 7.85 16.7984 6.515C16.7909 5.6 17.1944 4.76975 18.0044 4.49975Z" fill="url(#paint10_radial_1564_974)"/>
<path d="M18.0044 4.49975C18.0044 4.49975 19.7984 3.95 20.6609 2.42C20.8709 2.0375 21.1109 2.42 21.1109 2.42C21.1109 2.42 22.6169 5.24975 21.0044 8.24975C20.8094 8.76725 19.8719 8.99975 19.1294 8.99975C17.7869 8.99975 16.7984 7.85 16.7984 6.515C16.7909 5.6 17.1944 4.76975 18.0044 4.49975Z" fill="url(#paint11_radial_1564_974)"/>
</g>
<defs>
<radialGradient id="paint0_radial_1564_974" cx="0" cy="0" r="1" gradientUnits="userSpaceOnUse" gradientTransform="translate(16.125 7.5) rotate(94.5739) scale(18.8099)">
<stop stop-color="#9F70B8"/>
<stop offset="0.514" stop-color="#8543A8"/>
<stop offset="0.714" stop-color="#9344BB"/>
<stop offset="0.889" stop-color="#6B438B"/>
</radialGradient>
<radialGradient id="paint1_radial_1564_974" cx="0" cy="0" r="1" gradientUnits="userSpaceOnUse" gradientTransform="translate(13.4994 10.5004) rotate(135) scale(33.9411)">
<stop offset="0.315" stop-opacity="0"/>
<stop offset="1"/>
</radialGradient>
<linearGradient id="paint2_linear_1564_974" x1="12" y1="17.25" x2="12" y2="18.75" gradientUnits="userSpaceOnUse">
<stop stop-color="#4F3C43"/>
<stop offset="1" stop-color="#512756"/>
</linearGradient>
<radialGradient id="paint3_radial_1564_974" cx="0" cy="0" r="1" gradientUnits="userSpaceOnUse" gradientTransform="translate(9.66692 11.3333) rotate(135) scale(7.30677 3.78174)">
<stop stop-color="#392108"/>
<stop offset="1" stop-color="#C87928" stop-opacity="0"/>
</radialGradient>
<radialGradient id="paint4_radial_1564_974" cx="0" cy="0" r="1" gradientUnits="userSpaceOnUse" gradientTransform="translate(17.25 12) rotate(135) scale(6.0988 3.44287)">
<stop stop-color="#392108"/>
<stop offset="1" stop-color="#C87928" stop-opacity="0"/>
</radialGradient>
<linearGradient id="paint5_linear_1564_974" x1="15.4612" y1="12" x2="14.9452" y2="15.0225" gradientUnits="userSpaceOnUse">
<stop stop-color="#553B3E"/>
<stop offset="1" stop-color="#3D2432"/>
</linearGradient>
<linearGradient id="paint6_linear_1564_974" x1="15.4612" y1="12" x2="14.9452" y2="15.0225" gradientUnits="userSpaceOnUse">
<stop stop-color="#553B3E"/>
<stop offset="1" stop-color="#3D2432"/>
</linearGradient>
<linearGradient id="paint7_linear_1564_974" x1="8.625" y1="8.25" x2="8.625" y2="9.375" gradientUnits="userSpaceOnUse">
<stop offset="0.03" stop-color="#524049"/>
<stop offset="1" stop-color="#4A2C42"/>
</linearGradient>
<linearGradient id="paint8_linear_1564_974" x1="15.375" y1="8.25" x2="15.375" y2="9.375" gradientUnits="userSpaceOnUse">
<stop offset="0.03" stop-color="#524049"/>
<stop offset="1" stop-color="#4A2C42"/>
</linearGradient>
<radialGradient id="paint9_radial_1564_974" cx="0" cy="0" r="1" gradientUnits="userSpaceOnUse" gradientTransform="translate(9.00061 1.1251) rotate(165.379) scale(8.91367)">
<stop offset="0.473" stop-color="#8649AC"/>
<stop offset="0.645" stop-color="#AE7CC7"/>
<stop offset="0.759" stop-color="#9353B3"/>
<stop offset="0.946" stop-color="#733295"/>
</radialGradient>
<radialGradient id="paint10_radial_1564_974" cx="0" cy="0" r="1" gradientUnits="userSpaceOnUse" gradientTransform="translate(11.2499 3.74975) rotate(-8.36591) scale(12.8871 12.8871)">
<stop offset="0.473" stop-color="#613184"/>
<stop offset="0.727" stop-color="#9353B8"/>
<stop offset="0.946" stop-color="#792F9F"/>
</radialGradient>
<radialGradient id="paint11_radial_1564_974" cx="0" cy="0" r="1" gradientUnits="userSpaceOnUse" gradientTransform="translate(21.0008 3.37498) rotate(103.134) scale(11.5522 3.96035)">
<stop stop-color="#B676D6"/>
<stop offset="0.305" stop-color="#B676D6" stop-opacity="0"/>
</radialGradient>
</defs>
</svg>
