<svg width="17" height="22" viewBox="0 0 17 22" fill="none" xmlns="http://www.w3.org/2000/svg">
<path d="M6.41649 5.70161C7.56924 3.90386 8.25174 2.24336 8.60724 1.06886C8.74374 0.618856 9.31974 0.435106 9.66174 0.757606C14.8165 5.61836 16.5017 9.3301 16.837 13.6186C17.083 17.7669 15.0445 21.4584 9.57174 21.4584C4.43424 21.4584 0.641487 17.8726 1.15674 12.1884C1.46574 8.79235 2.78649 6.20411 3.84174 4.66361C4.17024 4.18436 4.85499 4.17761 5.23374 4.61861L6.17799 5.71811C6.24324 5.79386 6.36249 5.78561 6.41649 5.70161Z" fill="url(#paint0_radial_1564_995)"/>
<path d="M6.41649 5.70161C7.56924 3.90386 8.25174 2.24336 8.60724 1.06886C8.74374 0.618856 9.31974 0.435106 9.66174 0.757606C14.8165 5.61836 16.5017 9.3301 16.837 13.6186C17.083 17.7669 15.0445 21.4584 9.57174 21.4584C4.43424 21.4584 0.641487 17.8726 1.15674 12.1884C1.46574 8.79235 2.78649 6.20411 3.84174 4.66361C4.17024 4.18436 4.85499 4.17761 5.23374 4.61861L6.17799 5.71811C6.24324 5.79386 6.36249 5.78561 6.41649 5.70161Z" fill="url(#paint1_radial_1564_995)"/>
<path d="M6.41649 5.70161C7.56924 3.90386 8.25174 2.24336 8.60724 1.06886C8.74374 0.618856 9.31974 0.435106 9.66174 0.757606C14.8165 5.61836 16.5017 9.3301 16.837 13.6186C17.083 17.7669 15.0445 21.4584 9.57174 21.4584C4.43424 21.4584 0.641487 17.8726 1.15674 12.1884C1.46574 8.79235 2.78649 6.20411 3.84174 4.66361C4.17024 4.18436 4.85499 4.17761 5.23374 4.61861L6.17799 5.71811C6.24324 5.79386 6.36249 5.78561 6.41649 5.70161Z" fill="url(#paint2_linear_1564_995)"/>
<path d="M6.41649 5.70161C7.56924 3.90386 8.25174 2.24336 8.60724 1.06886C8.74374 0.618856 9.31974 0.435106 9.66174 0.757606C14.8165 5.61836 16.5017 9.3301 16.837 13.6186C17.083 17.7669 15.0445 21.4584 9.57174 21.4584C4.43424 21.4584 0.641487 17.8726 1.15674 12.1884C1.46574 8.79235 2.78649 6.20411 3.84174 4.66361C4.17024 4.18436 4.85499 4.17761 5.23374 4.61861L6.17799 5.71811C6.24324 5.79386 6.36249 5.78561 6.41649 5.70161Z" fill="url(#paint3_radial_1564_995)"/>
<path d="M6.41649 5.70161C7.56924 3.90386 8.25174 2.24336 8.60724 1.06886C8.74374 0.618856 9.31974 0.435106 9.66174 0.757606C14.8165 5.61836 16.5017 9.3301 16.837 13.6186C17.083 17.7669 15.0445 21.4584 9.57174 21.4584C4.43424 21.4584 0.641487 17.8726 1.15674 12.1884C1.46574 8.79235 2.78649 6.20411 3.84174 4.66361C4.17024 4.18436 4.85499 4.17761 5.23374 4.61861L6.17799 5.71811C6.24324 5.79386 6.36249 5.78561 6.41649 5.70161Z" fill="url(#paint4_radial_1564_995)"/>
<path d="M6.41649 5.70161C7.56924 3.90386 8.25174 2.24336 8.60724 1.06886C8.74374 0.618856 9.31974 0.435106 9.66174 0.757606C14.8165 5.61836 16.5017 9.3301 16.837 13.6186C17.083 17.7669 15.0445 21.4584 9.57174 21.4584C4.43424 21.4584 0.641487 17.8726 1.15674 12.1884C1.46574 8.79235 2.78649 6.20411 3.84174 4.66361C4.17024 4.18436 4.85499 4.17761 5.23374 4.61861L6.17799 5.71811C6.24324 5.79386 6.36249 5.78561 6.41649 5.70161Z" fill="url(#paint5_radial_1564_995)"/>
<path d="M6.41649 5.70161C7.56924 3.90386 8.25174 2.24336 8.60724 1.06886C8.74374 0.618856 9.31974 0.435106 9.66174 0.757606C14.8165 5.61836 16.5017 9.3301 16.837 13.6186C17.083 17.7669 15.0445 21.4584 9.57174 21.4584C4.43424 21.4584 0.641487 17.8726 1.15674 12.1884C1.46574 8.79235 2.78649 6.20411 3.84174 4.66361C4.17024 4.18436 4.85499 4.17761 5.23374 4.61861L6.17799 5.71811C6.24324 5.79386 6.36249 5.78561 6.41649 5.70161Z" fill="url(#paint6_radial_1564_995)"/>
<path d="M6.41649 5.70161C7.56924 3.90386 8.25174 2.24336 8.60724 1.06886C8.74374 0.618856 9.31974 0.435106 9.66174 0.757606C14.8165 5.61836 16.5017 9.3301 16.837 13.6186C17.083 17.7669 15.0445 21.4584 9.57174 21.4584C4.43424 21.4584 0.641487 17.8726 1.15674 12.1884C1.46574 8.79235 2.78649 6.20411 3.84174 4.66361C4.17024 4.18436 4.85499 4.17761 5.23374 4.61861L6.17799 5.71811C6.24324 5.79386 6.36249 5.78561 6.41649 5.70161Z" fill="url(#paint7_radial_1564_995)"/>
<g filter="url(#filter0_i_1564_995)">
<path d="M4.6338 13.9085C5.6103 11.5835 7.61505 9.01176 8.9688 7.61601C9.15239 7.4282 9.40239 7.31999 9.66497 7.31466C9.92755 7.30933 10.1817 7.40731 10.3728 7.58751C12.9685 9.97926 13.75 12.1415 14.413 14.6585C15.103 17.2775 14.413 21.497 9.2223 21.497C4.7523 21.497 3.2028 17.3135 4.6338 13.9085Z" fill="url(#paint8_radial_1564_995)"/>
<path d="M4.6338 13.9085C5.6103 11.5835 7.61505 9.01176 8.9688 7.61601C9.15239 7.4282 9.40239 7.31999 9.66497 7.31466C9.92755 7.30933 10.1817 7.40731 10.3728 7.58751C12.9685 9.97926 13.75 12.1415 14.413 14.6585C15.103 17.2775 14.413 21.497 9.2223 21.497C4.7523 21.497 3.2028 17.3135 4.6338 13.9085Z" fill="url(#paint9_radial_1564_995)"/>
<path d="M4.6338 13.9085C5.6103 11.5835 7.61505 9.01176 8.9688 7.61601C9.15239 7.4282 9.40239 7.31999 9.66497 7.31466C9.92755 7.30933 10.1817 7.40731 10.3728 7.58751C12.9685 9.97926 13.75 12.1415 14.413 14.6585C15.103 17.2775 14.413 21.497 9.2223 21.497C4.7523 21.497 3.2028 17.3135 4.6338 13.9085Z" fill="url(#paint10_radial_1564_995)"/>
</g>
<path d="M4.6338 13.9085C5.6103 11.5835 7.61505 9.01176 8.9688 7.61601C9.15239 7.4282 9.40239 7.31999 9.66497 7.31466C9.92755 7.30933 10.1817 7.40731 10.3728 7.58751C12.9685 9.97926 13.75 12.1415 14.413 14.6585C15.103 17.2775 14.413 21.497 9.2223 21.497C4.7523 21.497 3.2028 17.3135 4.6338 13.9085Z" fill="url(#paint11_linear_1564_995)"/>
<path d="M4.6338 13.9085C5.6103 11.5835 7.61505 9.01176 8.9688 7.61601C9.15239 7.4282 9.40239 7.31999 9.66497 7.31466C9.92755 7.30933 10.1817 7.40731 10.3728 7.58751C12.9685 9.97926 13.75 12.1415 14.413 14.6585C15.103 17.2775 14.413 21.497 9.2223 21.497C4.7523 21.497 3.2028 17.3135 4.6338 13.9085Z" fill="url(#paint12_radial_1564_995)"/>
<g filter="url(#filter1_f_1564_995)">
<path d="M5.86064 7.65509C7.59689 5.11259 8.61315 2.36159 8.9229 1.68359C8.47065 5.15909 7.15289 7.70459 4.67189 10.9821C2.68739 13.6041 2.32889 15.8481 2.34614 16.3948C1.72589 12.2233 3.68939 10.8328 5.86064 7.65509Z" fill="url(#paint13_linear_1564_995)"/>
</g>
<g filter="url(#filter2_f_1564_995)">
<path d="M4.3605 4.90625C3.3855 6.11675 1.4475 9.47375 1.4955 13.2192C2.4555 9.37775 4.70175 8.16725 4.3605 4.90625Z" fill="url(#paint14_linear_1564_995)"/>
</g>
<defs>
<filter id="filter0_i_1564_995" x="4.11768" y="7.31445" width="11.019" height="14.1826" filterUnits="userSpaceOnUse" color-interpolation-filters="sRGB">
<feFlood flood-opacity="0" result="BackgroundImageFix"/>
<feBlend mode="normal" in="SourceGraphic" in2="BackgroundImageFix" result="shape"/>
<feColorMatrix in="SourceAlpha" type="matrix" values="0 0 0 0 0 0 0 0 0 0 0 0 0 0 0 0 0 0 127 0" result="hardAlpha"/>
<feOffset dx="0.5"/>
<feGaussianBlur stdDeviation="0.25"/>
<feComposite in2="hardAlpha" operator="arithmetic" k2="-1" k3="1"/>
<feColorMatrix type="matrix" values="0 0 0 0 0.952941 0 0 0 0 0.615686 0 0 0 0 0.364706 0 0 0 1 0"/>
<feBlend mode="normal" in2="shape" result="effect1_innerShadow_1564_995"/>
</filter>
<filter id="filter1_f_1564_995" x="0.97998" y="0.433594" width="9.19287" height="17.2109" filterUnits="userSpaceOnUse" color-interpolation-filters="sRGB">
<feFlood flood-opacity="0" result="BackgroundImageFix"/>
<feBlend mode="normal" in="SourceGraphic" in2="BackgroundImageFix" result="shape"/>
<feGaussianBlur stdDeviation="0.625" result="effect1_foregroundBlur_1564_995"/>
</filter>
<filter id="filter2_f_1564_995" x="-0.00537109" y="3.40625" width="5.90088" height="11.3135" filterUnits="userSpaceOnUse" color-interpolation-filters="sRGB">
<feFlood flood-opacity="0" result="BackgroundImageFix"/>
<feBlend mode="normal" in="SourceGraphic" in2="BackgroundImageFix" result="shape"/>
<feGaussianBlur stdDeviation="0.75" result="effect1_foregroundBlur_1564_995"/>
</filter>
<radialGradient id="paint0_radial_1564_995" cx="0" cy="0" r="1" gradientUnits="userSpaceOnUse" gradientTransform="translate(15.0013 13.7905) rotate(-179.474) scale(12.8241 19.3396)">
<stop stop-color="#FF953D"/>
<stop offset="1" stop-color="#FF5141"/>
</radialGradient>
<radialGradient id="paint1_radial_1564_995" cx="0" cy="0" r="1" gradientUnits="userSpaceOnUse" gradientTransform="translate(4.7794 10.7409) rotate(-157.937) scale(7.75807 13.3871)">
<stop stop-color="#CE5327"/>
<stop offset="1" stop-color="#CE5327" stop-opacity="0"/>
</radialGradient>
<linearGradient id="paint2_linear_1564_995" x1="10.7522" y1="21.4584" x2="10.7522" y2="17.6349" gradientUnits="userSpaceOnUse">
<stop stop-color="#FF7583"/>
<stop offset="1" stop-color="#FF7583" stop-opacity="0"/>
</linearGradient>
<radialGradient id="paint3_radial_1564_995" cx="0" cy="0" r="1" gradientUnits="userSpaceOnUse" gradientTransform="translate(0.718395 9.79405) rotate(24.015) scale(2.32849 19.2743)">
<stop stop-color="#FFAA7B"/>
<stop offset="1" stop-color="#FFAA7B" stop-opacity="0"/>
</radialGradient>
<radialGradient id="paint4_radial_1564_995" cx="0" cy="0" r="1" gradientUnits="userSpaceOnUse" gradientTransform="translate(3.98274 3.68786) rotate(77.3197) scale(2.88026 3.59391)">
<stop stop-color="#FF5E47"/>
<stop offset="1" stop-color="#FF5E47" stop-opacity="0"/>
</radialGradient>
<radialGradient id="paint5_radial_1564_995" cx="0" cy="0" r="1" gradientUnits="userSpaceOnUse" gradientTransform="translate(9.32199 0.0248552) rotate(87.8819) scale(7.60305 7.03741)">
<stop stop-color="#FF2F3C"/>
<stop offset="1" stop-color="#FF2F3C" stop-opacity="0"/>
</radialGradient>
<radialGradient id="paint6_radial_1564_995" cx="0" cy="0" r="1" gradientUnits="userSpaceOnUse" gradientTransform="translate(7.42524 2.60036) rotate(25.3283) scale(1.72421 3.46014)">
<stop stop-color="#FF846C"/>
<stop offset="1" stop-color="#FF846C" stop-opacity="0"/>
</radialGradient>
<radialGradient id="paint7_radial_1564_995" cx="0" cy="0" r="1" gradientUnits="userSpaceOnUse" gradientTransform="translate(6.34374 5.15786) rotate(113.224) scale(1.70877 0.391579)">
<stop stop-color="#FFA682"/>
<stop offset="1" stop-color="#FFA682" stop-opacity="0"/>
</radialGradient>
<radialGradient id="paint8_radial_1564_995" cx="0" cy="0" r="1" gradientUnits="userSpaceOnUse" gradientTransform="translate(12.9032 17.283) rotate(-168.558) scale(7.52182 9.36683)">
<stop stop-color="#FFDA2F"/>
<stop offset="1" stop-color="#FF8E41"/>
</radialGradient>
<radialGradient id="paint9_radial_1564_995" cx="0" cy="0" r="1" gradientUnits="userSpaceOnUse" gradientTransform="translate(6.3003 5.44476) rotate(69.044) scale(10.6069 9.21592)">
<stop stop-color="#FD5639"/>
<stop offset="1" stop-color="#FE5533" stop-opacity="0"/>
</radialGradient>
<radialGradient id="paint10_radial_1564_995" cx="0" cy="0" r="1" gradientUnits="userSpaceOnUse" gradientTransform="translate(11.4295 14.4725) rotate(174.239) scale(7.34899 17.9936)">
<stop offset="0.628" stop-color="#D7812D" stop-opacity="0"/>
<stop offset="1" stop-color="#D7812D"/>
</radialGradient>
<linearGradient id="paint11_linear_1564_995" x1="9.37755" y1="6.95976" x2="9.37755" y2="9.69501" gradientUnits="userSpaceOnUse">
<stop stop-color="#F95131"/>
<stop offset="1" stop-color="#F95131" stop-opacity="0"/>
</linearGradient>
<radialGradient id="paint12_radial_1564_995" cx="0" cy="0" r="1" gradientUnits="userSpaceOnUse" gradientTransform="translate(14.2397 13.1031) rotate(143.063) scale(12.0409 8.71305)">
<stop offset="0.772" stop-color="#F18A52" stop-opacity="0"/>
<stop offset="1" stop-color="#F18A52"/>
</radialGradient>
<linearGradient id="paint13_linear_1564_995" x1="8.24715" y1="2.19209" x2="2.7414" y2="16.0498" gradientUnits="userSpaceOnUse">
<stop stop-color="#FF7558"/>
<stop offset="1" stop-color="#F38758"/>
</linearGradient>
<linearGradient id="paint14_linear_1564_995" x1="4.15575" y1="5.10875" x2="1.1865" y2="13.61" gradientUnits="userSpaceOnUse">
<stop stop-color="#FF815B"/>
<stop offset="1" stop-color="#FF9C6D"/>
</linearGradient>
</defs>
</svg>
