<svg width="18" height="23" viewBox="0 0 18 23" fill="none" xmlns="http://www.w3.org/2000/svg">
<g filter="url(#filter0_i_1564_902)">
<path d="M6.46637 3.03808C6.46066 2.71057 6.52024 2.38521 6.64162 2.08097C6.763 1.77673 6.94376 1.49972 7.17335 1.26609C7.40294 1.03246 7.67677 0.846896 7.97884 0.720227C8.28091 0.593558 8.60519 0.52832 8.93275 0.52832C9.26031 0.52832 9.58459 0.593558 9.88666 0.720227C10.1887 0.846896 10.4626 1.03246 10.6921 1.26609C10.9217 1.49972 11.1025 1.77673 11.2239 2.08097C11.3453 2.38521 11.4048 2.71057 11.3991 3.03808V5.87608C11.3991 6.11833 11.3826 6.35983 11.3451 6.60133C11.3316 6.68908 11.3174 6.77758 11.3091 6.86533C11.2821 7.14283 11.3151 7.50583 11.5041 7.74958L11.0526 8.18458C12.2018 8.773 13.1659 9.66761 13.8385 10.7696C14.5112 11.8716 14.8661 13.138 14.8641 14.4291C14.8641 15.1678 14.7501 15.8803 14.5394 16.5486L13.7924 21.4288H7.71588V21.4266C3.96363 21.3456 0.953125 18.8991 0.953125 14.4291C0.953125 11.8018 2.21088 9.68683 4.11438 8.49433L4.10913 8.49058C4.23888 8.40058 4.39188 8.30908 4.55612 8.21083L4.55688 8.21008C5.09688 7.88683 5.75688 7.49083 6.10413 6.84433C6.40637 6.28333 6.46488 5.37358 6.46488 4.95208H6.46637V3.03808Z" fill="url(#paint0_linear_1564_902)"/>
</g>
<path d="M6.46637 3.03808C6.46066 2.71057 6.52024 2.38521 6.64162 2.08097C6.763 1.77673 6.94376 1.49972 7.17335 1.26609C7.40294 1.03246 7.67677 0.846896 7.97884 0.720227C8.28091 0.593558 8.60519 0.52832 8.93275 0.52832C9.26031 0.52832 9.58459 0.593558 9.88666 0.720227C10.1887 0.846896 10.4626 1.03246 10.6921 1.26609C10.9217 1.49972 11.1025 1.77673 11.2239 2.08097C11.3453 2.38521 11.4048 2.71057 11.3991 3.03808V5.87608C11.3991 6.11833 11.3826 6.35983 11.3451 6.60133C11.3316 6.68908 11.3174 6.77758 11.3091 6.86533C11.2821 7.14283 11.3151 7.50583 11.5041 7.74958L11.0526 8.18458C12.2018 8.773 13.1659 9.66761 13.8385 10.7696C14.5112 11.8716 14.8661 13.138 14.8641 14.4291C14.8641 15.1678 14.7501 15.8803 14.5394 16.5486L13.7924 21.4288H7.71588V21.4266C3.96363 21.3456 0.953125 18.8991 0.953125 14.4291C0.953125 11.8018 2.21088 9.68683 4.11438 8.49433L4.10913 8.49058C4.23888 8.40058 4.39188 8.30908 4.55612 8.21083L4.55688 8.21008C5.09688 7.88683 5.75688 7.49083 6.10413 6.84433C6.40637 6.28333 6.46488 5.37358 6.46488 4.95208H6.46637V3.03808Z" fill="url(#paint1_radial_1564_902)"/>
<path d="M6.46637 3.03808C6.46066 2.71057 6.52024 2.38521 6.64162 2.08097C6.763 1.77673 6.94376 1.49972 7.17335 1.26609C7.40294 1.03246 7.67677 0.846896 7.97884 0.720227C8.28091 0.593558 8.60519 0.52832 8.93275 0.52832C9.26031 0.52832 9.58459 0.593558 9.88666 0.720227C10.1887 0.846896 10.4626 1.03246 10.6921 1.26609C10.9217 1.49972 11.1025 1.77673 11.2239 2.08097C11.3453 2.38521 11.4048 2.71057 11.3991 3.03808V5.87608C11.3991 6.11833 11.3826 6.35983 11.3451 6.60133C11.3316 6.68908 11.3174 6.77758 11.3091 6.86533C11.2821 7.14283 11.3151 7.50583 11.5041 7.74958L11.0526 8.18458C12.2018 8.773 13.1659 9.66761 13.8385 10.7696C14.5112 11.8716 14.8661 13.138 14.8641 14.4291C14.8641 15.1678 14.7501 15.8803 14.5394 16.5486L13.7924 21.4288H7.71588V21.4266C3.96363 21.3456 0.953125 18.8991 0.953125 14.4291C0.953125 11.8018 2.21088 9.68683 4.11438 8.49433L4.10913 8.49058C4.23888 8.40058 4.39188 8.30908 4.55612 8.21083L4.55688 8.21008C5.09688 7.88683 5.75688 7.49083 6.10413 6.84433C6.40637 6.28333 6.46488 5.37358 6.46488 4.95208H6.46637V3.03808Z" fill="url(#paint2_radial_1564_902)"/>
<path d="M6.46637 3.03808C6.46066 2.71057 6.52024 2.38521 6.64162 2.08097C6.763 1.77673 6.94376 1.49972 7.17335 1.26609C7.40294 1.03246 7.67677 0.846896 7.97884 0.720227C8.28091 0.593558 8.60519 0.52832 8.93275 0.52832C9.26031 0.52832 9.58459 0.593558 9.88666 0.720227C10.1887 0.846896 10.4626 1.03246 10.6921 1.26609C10.9217 1.49972 11.1025 1.77673 11.2239 2.08097C11.3453 2.38521 11.4048 2.71057 11.3991 3.03808V5.87608C11.3991 6.11833 11.3826 6.35983 11.3451 6.60133C11.3316 6.68908 11.3174 6.77758 11.3091 6.86533C11.2821 7.14283 11.3151 7.50583 11.5041 7.74958L11.0526 8.18458C12.2018 8.773 13.1659 9.66761 13.8385 10.7696C14.5112 11.8716 14.8661 13.138 14.8641 14.4291C14.8641 15.1678 14.7501 15.8803 14.5394 16.5486L13.7924 21.4288H7.71588V21.4266C3.96363 21.3456 0.953125 18.8991 0.953125 14.4291C0.953125 11.8018 2.21088 9.68683 4.11438 8.49433L4.10913 8.49058C4.23888 8.40058 4.39188 8.30908 4.55612 8.21083L4.55688 8.21008C5.09688 7.88683 5.75688 7.49083 6.10413 6.84433C6.40637 6.28333 6.46488 5.37358 6.46488 4.95208H6.46637V3.03808Z" fill="url(#paint3_radial_1564_902)"/>
<path d="M6.46637 3.03808C6.46066 2.71057 6.52024 2.38521 6.64162 2.08097C6.763 1.77673 6.94376 1.49972 7.17335 1.26609C7.40294 1.03246 7.67677 0.846896 7.97884 0.720227C8.28091 0.593558 8.60519 0.52832 8.93275 0.52832C9.26031 0.52832 9.58459 0.593558 9.88666 0.720227C10.1887 0.846896 10.4626 1.03246 10.6921 1.26609C10.9217 1.49972 11.1025 1.77673 11.2239 2.08097C11.3453 2.38521 11.4048 2.71057 11.3991 3.03808V5.87608C11.3991 6.11833 11.3826 6.35983 11.3451 6.60133C11.3316 6.68908 11.3174 6.77758 11.3091 6.86533C11.2821 7.14283 11.3151 7.50583 11.5041 7.74958L11.0526 8.18458C12.2018 8.773 13.1659 9.66761 13.8385 10.7696C14.5112 11.8716 14.8661 13.138 14.8641 14.4291C14.8641 15.1678 14.7501 15.8803 14.5394 16.5486L13.7924 21.4288H7.71588V21.4266C3.96363 21.3456 0.953125 18.8991 0.953125 14.4291C0.953125 11.8018 2.21088 9.68683 4.11438 8.49433L4.10913 8.49058C4.23888 8.40058 4.39188 8.30908 4.55612 8.21083L4.55688 8.21008C5.09688 7.88683 5.75688 7.49083 6.10413 6.84433C6.40637 6.28333 6.46488 5.37358 6.46488 4.95208H6.46637V3.03808Z" fill="url(#paint4_radial_1564_902)"/>
<path d="M6.46637 3.03808C6.46066 2.71057 6.52024 2.38521 6.64162 2.08097C6.763 1.77673 6.94376 1.49972 7.17335 1.26609C7.40294 1.03246 7.67677 0.846896 7.97884 0.720227C8.28091 0.593558 8.60519 0.52832 8.93275 0.52832C9.26031 0.52832 9.58459 0.593558 9.88666 0.720227C10.1887 0.846896 10.4626 1.03246 10.6921 1.26609C10.9217 1.49972 11.1025 1.77673 11.2239 2.08097C11.3453 2.38521 11.4048 2.71057 11.3991 3.03808V5.87608C11.3991 6.11833 11.3826 6.35983 11.3451 6.60133C11.3316 6.68908 11.3174 6.77758 11.3091 6.86533C11.2821 7.14283 11.3151 7.50583 11.5041 7.74958L11.0526 8.18458C12.2018 8.773 13.1659 9.66761 13.8385 10.7696C14.5112 11.8716 14.8661 13.138 14.8641 14.4291C14.8641 15.1678 14.7501 15.8803 14.5394 16.5486L13.7924 21.4288H7.71588V21.4266C3.96363 21.3456 0.953125 18.8991 0.953125 14.4291C0.953125 11.8018 2.21088 9.68683 4.11438 8.49433L4.10913 8.49058C4.23888 8.40058 4.39188 8.30908 4.55612 8.21083L4.55688 8.21008C5.09688 7.88683 5.75688 7.49083 6.10413 6.84433C6.40637 6.28333 6.46488 5.37358 6.46488 4.95208H6.46637V3.03808Z" fill="url(#paint5_radial_1564_902)"/>
<path d="M6.46637 3.03808C6.46066 2.71057 6.52024 2.38521 6.64162 2.08097C6.763 1.77673 6.94376 1.49972 7.17335 1.26609C7.40294 1.03246 7.67677 0.846896 7.97884 0.720227C8.28091 0.593558 8.60519 0.52832 8.93275 0.52832C9.26031 0.52832 9.58459 0.593558 9.88666 0.720227C10.1887 0.846896 10.4626 1.03246 10.6921 1.26609C10.9217 1.49972 11.1025 1.77673 11.2239 2.08097C11.3453 2.38521 11.4048 2.71057 11.3991 3.03808V5.87608C11.3991 6.11833 11.3826 6.35983 11.3451 6.60133C11.3316 6.68908 11.3174 6.77758 11.3091 6.86533C11.2821 7.14283 11.3151 7.50583 11.5041 7.74958L11.0526 8.18458C12.2018 8.773 13.1659 9.66761 13.8385 10.7696C14.5112 11.8716 14.8661 13.138 14.8641 14.4291C14.8641 15.1678 14.7501 15.8803 14.5394 16.5486L13.7924 21.4288H7.71588V21.4266C3.96363 21.3456 0.953125 18.8991 0.953125 14.4291C0.953125 11.8018 2.21088 9.68683 4.11438 8.49433L4.10913 8.49058C4.23888 8.40058 4.39188 8.30908 4.55612 8.21083L4.55688 8.21008C5.09688 7.88683 5.75688 7.49083 6.10413 6.84433C6.40637 6.28333 6.46488 5.37358 6.46488 4.95208H6.46637V3.03808Z" fill="url(#paint6_linear_1564_902)"/>
<g filter="url(#filter1_f_1564_902)">
<path d="M15.0245 10.2011C15.0245 9.69349 14.8229 9.20665 14.4639 8.84771C14.105 8.48876 13.6181 8.28711 13.1105 8.28711H10.991C10.5982 8.28728 10.2149 8.40832 9.89326 8.6338C9.57159 8.85927 9.32708 9.17826 9.19293 9.54746C9.05878 9.91667 9.04147 10.3182 9.14337 10.6976C9.24526 11.077 9.46142 11.4158 9.7625 11.6681C9.53267 11.8412 9.34473 12.0638 9.21262 12.3194C9.08051 12.5751 9.00761 12.8571 8.99933 13.1447C8.99105 13.4324 9.04759 13.7182 9.16477 13.981C9.28195 14.2437 9.45676 14.4768 9.67625 14.6629C9.4641 14.8423 9.29365 15.0658 9.17681 15.3179C9.05997 15.57 8.99954 15.8445 8.99975 16.1224V16.2169C8.99975 16.7419 9.2105 17.2166 9.5525 17.5624C9.29011 17.822 9.1108 18.1537 9.03734 18.5155C8.96387 18.8772 8.99957 19.2526 9.1399 19.5941C9.28023 19.9355 9.51885 20.2275 9.82547 20.433C10.1321 20.6385 10.4929 20.7483 10.862 20.7484H12.965C13.2922 20.7484 13.6137 20.6622 13.897 20.4985C14.1804 20.3347 14.4155 20.0992 14.5789 19.8156C14.7422 19.5321 14.828 19.2105 14.8274 18.8832C14.8269 18.556 14.7402 18.2347 14.576 17.9516C14.9063 17.7977 15.1858 17.5527 15.3816 17.2454C15.5774 16.9381 15.6815 16.5813 15.6815 16.2169V16.1224C15.6815 15.5299 15.4115 15.0011 14.99 14.6501C15.2312 14.4407 15.4164 14.1744 15.5288 13.8753C15.6411 13.5763 15.677 13.2539 15.6333 12.9375C15.5896 12.621 15.4676 12.3205 15.2784 12.0631C15.0892 11.8057 14.8387 11.5995 14.5498 11.4634C14.8453 11.1259 15.0245 10.6841 15.0245 10.2004" fill="url(#paint7_linear_1564_902)"/>
</g>
<g filter="url(#filter2_i_1564_902)">
<path d="M14.5504 11.5818C15.7558 11.5818 16.7329 10.6047 16.7329 9.3993C16.7329 8.19394 15.7558 7.2168 14.5504 7.2168H12.1332C10.9278 7.2168 9.95066 8.19394 9.95066 9.3993C9.95066 10.6047 10.9278 11.5818 12.1332 11.5818H14.5504Z" fill="url(#paint8_linear_1564_902)"/>
<path d="M14.5504 11.5818C15.7558 11.5818 16.7329 10.6047 16.7329 9.3993C16.7329 8.19394 15.7558 7.2168 14.5504 7.2168H12.1332C10.9278 7.2168 9.95066 8.19394 9.95066 9.3993C9.95066 10.6047 10.9278 11.5818 12.1332 11.5818H14.5504Z" fill="url(#paint9_radial_1564_902)"/>
<path d="M14.5504 11.5818C15.7558 11.5818 16.7329 10.6047 16.7329 9.3993C16.7329 8.19394 15.7558 7.2168 14.5504 7.2168H12.1332C10.9278 7.2168 9.95066 8.19394 9.95066 9.3993C9.95066 10.6047 10.9278 11.5818 12.1332 11.5818H14.5504Z" fill="url(#paint10_radial_1564_902)"/>
</g>
<g filter="url(#filter3_f_1564_902)">
<path d="M15.0657 8.28711H12.3507C11.8296 8.28711 11.4072 8.70953 11.4072 9.23061C11.4072 9.75169 11.8296 10.1741 12.3507 10.1741H15.0657C15.5868 10.1741 16.0092 9.75169 16.0092 9.23061C16.0092 8.70953 15.5868 8.28711 15.0657 8.28711Z" fill="url(#paint11_linear_1564_902)"/>
</g>
<g filter="url(#filter4_i_1564_902)">
<path d="M14.3833 21.4296C15.5564 21.4296 16.5073 20.4787 16.5073 19.3056C16.5073 18.1326 15.5564 17.1816 14.3833 17.1816H11.9856C10.8125 17.1816 9.86157 18.1326 9.86157 19.3056C9.86157 20.4787 10.8125 21.4296 11.9856 21.4296H14.3833Z" fill="url(#paint12_linear_1564_902)"/>
<path d="M14.3833 21.4296C15.5564 21.4296 16.5073 20.4787 16.5073 19.3056C16.5073 18.1326 15.5564 17.1816 14.3833 17.1816H11.9856C10.8125 17.1816 9.86157 18.1326 9.86157 19.3056C9.86157 20.4787 10.8125 21.4296 11.9856 21.4296H14.3833Z" fill="url(#paint13_radial_1564_902)"/>
<path d="M14.3833 21.4296C15.5564 21.4296 16.5073 20.4787 16.5073 19.3056C16.5073 18.1326 15.5564 17.1816 14.3833 17.1816H11.9856C10.8125 17.1816 9.86157 18.1326 9.86157 19.3056C9.86157 20.4787 10.8125 21.4296 11.9856 21.4296H14.3833Z" fill="url(#paint14_radial_1564_902)"/>
</g>
<g filter="url(#filter5_f_1564_902)">
<path d="M15.4559 18.4434H12.5354C12.2297 18.4434 11.9819 18.6912 11.9819 18.9969C11.9819 19.3025 12.2297 19.5504 12.5354 19.5504H15.4559C15.7616 19.5504 16.0094 19.3025 16.0094 18.9969C16.0094 18.6912 15.7616 18.4434 15.4559 18.4434Z" fill="url(#paint15_linear_1564_902)"/>
</g>
<g filter="url(#filter6_i_1564_902)">
<path d="M17.4814 16.2602V16.1522C17.4814 14.9469 16.5043 13.9697 15.2989 13.9697H12.0447C10.8393 13.9697 9.8622 14.9469 9.8622 16.1522V16.2602C9.8622 17.4656 10.8393 18.4427 12.0447 18.4427H15.2989C16.5043 18.4427 17.4814 17.4656 17.4814 16.2602Z" fill="url(#paint16_linear_1564_902)"/>
<path d="M17.4814 16.2602V16.1522C17.4814 14.9469 16.5043 13.9697 15.2989 13.9697H12.0447C10.8393 13.9697 9.8622 14.9469 9.8622 16.1522V16.2602C9.8622 17.4656 10.8393 18.4427 12.0447 18.4427H15.2989C16.5043 18.4427 17.4814 17.4656 17.4814 16.2602Z" fill="url(#paint17_radial_1564_902)"/>
<path d="M17.4814 16.2602V16.1522C17.4814 14.9469 16.5043 13.9697 15.2989 13.9697H12.0447C10.8393 13.9697 9.8622 14.9469 9.8622 16.1522V16.2602C9.8622 17.4656 10.8393 18.4427 12.0447 18.4427H15.2989C16.5043 18.4427 17.4814 17.4656 17.4814 16.2602Z" fill="url(#paint18_radial_1564_902)"/>
</g>
<g filter="url(#filter7_f_1564_902)">
<path d="M16.1797 15.541H12.243C11.9373 15.541 11.6895 15.7888 11.6895 16.0945C11.6895 16.4002 11.9373 16.648 12.243 16.648H16.1797C16.4854 16.648 16.7332 16.4002 16.7332 16.0945C16.7332 15.7888 16.4854 15.541 16.1797 15.541Z" fill="url(#paint19_linear_1564_902)"/>
</g>
<g filter="url(#filter8_i_1564_902)">
<path d="M17.4473 12.8251V12.8153C17.4473 11.61 16.4701 10.6328 15.2648 10.6328H12.0443C10.8389 10.6328 9.86177 11.61 9.86177 12.8153V12.8251C9.86177 14.0304 10.8389 15.0076 12.0443 15.0076H15.2648C16.4701 15.0076 17.4473 14.0304 17.4473 12.8251Z" fill="url(#paint20_linear_1564_902)"/>
<path d="M17.4473 12.8251V12.8153C17.4473 11.61 16.4701 10.6328 15.2648 10.6328H12.0443C10.8389 10.6328 9.86177 11.61 9.86177 12.8153V12.8251C9.86177 14.0304 10.8389 15.0076 12.0443 15.0076H15.2648C16.4701 15.0076 17.4473 14.0304 17.4473 12.8251Z" fill="url(#paint21_radial_1564_902)"/>
</g>
<g filter="url(#filter9_f_1564_902)">
<path d="M15.7895 11.5518H12.2975C11.7764 11.5518 11.354 11.9742 11.354 12.4953C11.354 13.0163 11.7764 13.4388 12.2975 13.4388H15.7895C16.3106 13.4388 16.733 13.0163 16.733 12.4953C16.733 11.9742 16.3106 11.5518 15.7895 11.5518Z" fill="url(#paint22_linear_1564_902)"/>
</g>
<path d="M8.94141 0.571289C8.28719 0.571289 7.65976 0.831178 7.19716 1.29378C6.73455 1.75639 6.47466 2.38382 6.47466 3.03804V4.95204H6.47316C6.47316 5.37354 6.41466 6.28329 6.11316 6.84429C5.76516 7.49079 5.10516 7.88679 4.56591 8.20929C4.40091 8.30829 4.24791 8.40054 4.11816 8.49054C4.86441 9.08829 6.39216 10.283 6.42966 10.2545C6.46716 10.226 8.18766 9.31329 9.04266 8.85954L9.00666 8.34204C9.64925 8.32484 10.2597 8.05748 10.7081 7.59689C11.1566 7.13629 11.4074 6.51886 11.4074 5.87604V3.03804C11.4074 2.38395 11.1476 1.75663 10.6852 1.29405C10.2227 0.831465 9.59551 0.571488 8.94141 0.571289Z" fill="url(#paint23_radial_1564_902)"/>
<g filter="url(#filter10_f_1564_902)">
<path d="M10.7775 2.39266C10.7775 1.90181 10.3796 1.50391 9.88875 1.50391C9.39791 1.50391 9 1.90181 9 2.39266V6.61291C9 7.10375 9.39791 7.50166 9.88875 7.50166C10.3796 7.50166 10.7775 7.10375 10.7775 6.61291V2.39266Z" fill="url(#paint24_linear_1564_902)"/>
</g>
<defs>
<filter id="filter0_i_1564_902" x="0.953125" y="0.52832" width="14.4111" height="20.9004" filterUnits="userSpaceOnUse" color-interpolation-filters="sRGB">
<feFlood flood-opacity="0" result="BackgroundImageFix"/>
<feBlend mode="normal" in="SourceGraphic" in2="BackgroundImageFix" result="shape"/>
<feColorMatrix in="SourceAlpha" type="matrix" values="0 0 0 0 0 0 0 0 0 0 0 0 0 0 0 0 0 0 127 0" result="hardAlpha"/>
<feOffset dx="0.5"/>
<feGaussianBlur stdDeviation="1.5"/>
<feComposite in2="hardAlpha" operator="arithmetic" k2="-1" k3="1"/>
<feColorMatrix type="matrix" values="0 0 0 0 0.766667 0 0 0 0 0.57524 0 0 0 0 0.440833 0 0 0 1 0"/>
<feBlend mode="normal" in2="shape" result="effect1_innerShadow_1564_902"/>
</filter>
<filter id="filter1_f_1564_902" x="6.99854" y="6.28711" width="10.6831" height="16.4609" filterUnits="userSpaceOnUse" color-interpolation-filters="sRGB">
<feFlood flood-opacity="0" result="BackgroundImageFix"/>
<feBlend mode="normal" in="SourceGraphic" in2="BackgroundImageFix" result="shape"/>
<feGaussianBlur stdDeviation="1" result="effect1_foregroundBlur_1564_902"/>
</filter>
<filter id="filter2_i_1564_902" x="9.95068" y="7.2168" width="7.28223" height="4.36523" filterUnits="userSpaceOnUse" color-interpolation-filters="sRGB">
<feFlood flood-opacity="0" result="BackgroundImageFix"/>
<feBlend mode="normal" in="SourceGraphic" in2="BackgroundImageFix" result="shape"/>
<feColorMatrix in="SourceAlpha" type="matrix" values="0 0 0 0 0 0 0 0 0 0 0 0 0 0 0 0 0 0 127 0" result="hardAlpha"/>
<feOffset dx="0.5"/>
<feGaussianBlur stdDeviation="0.75"/>
<feComposite in2="hardAlpha" operator="arithmetic" k2="-1" k3="1"/>
<feColorMatrix type="matrix" values="0 0 0 0 0.784314 0 0 0 0 0.572549 0 0 0 0 0.427451 0 0 0 1 0"/>
<feBlend mode="normal" in2="shape" result="effect1_innerShadow_1564_902"/>
</filter>
<filter id="filter3_f_1564_902" x="10.1572" y="7.03711" width="7.10205" height="4.38672" filterUnits="userSpaceOnUse" color-interpolation-filters="sRGB">
<feFlood flood-opacity="0" result="BackgroundImageFix"/>
<feBlend mode="normal" in="SourceGraphic" in2="BackgroundImageFix" result="shape"/>
<feGaussianBlur stdDeviation="0.625" result="effect1_foregroundBlur_1564_902"/>
</filter>
<filter id="filter4_i_1564_902" x="9.86182" y="17.1816" width="7.14551" height="4.74805" filterUnits="userSpaceOnUse" color-interpolation-filters="sRGB">
<feFlood flood-opacity="0" result="BackgroundImageFix"/>
<feBlend mode="normal" in="SourceGraphic" in2="BackgroundImageFix" result="shape"/>
<feColorMatrix in="SourceAlpha" type="matrix" values="0 0 0 0 0 0 0 0 0 0 0 0 0 0 0 0 0 0 127 0" result="hardAlpha"/>
<feOffset dx="0.5" dy="0.5"/>
<feGaussianBlur stdDeviation="0.75"/>
<feComposite in2="hardAlpha" operator="arithmetic" k2="-1" k3="1"/>
<feColorMatrix type="matrix" values="0 0 0 0 0.756863 0 0 0 0 0.52549 0 0 0 0 0.494118 0 0 0 1 0"/>
<feBlend mode="normal" in2="shape" result="effect1_innerShadow_1564_902"/>
</filter>
<filter id="filter5_f_1564_902" x="10.7319" y="17.1934" width="6.52734" height="3.60742" filterUnits="userSpaceOnUse" color-interpolation-filters="sRGB">
<feFlood flood-opacity="0" result="BackgroundImageFix"/>
<feBlend mode="normal" in="SourceGraphic" in2="BackgroundImageFix" result="shape"/>
<feGaussianBlur stdDeviation="0.625" result="effect1_foregroundBlur_1564_902"/>
</filter>
<filter id="filter6_i_1564_902" x="9.8623" y="13.9697" width="8.61914" height="4.97266" filterUnits="userSpaceOnUse" color-interpolation-filters="sRGB">
<feFlood flood-opacity="0" result="BackgroundImageFix"/>
<feBlend mode="normal" in="SourceGraphic" in2="BackgroundImageFix" result="shape"/>
<feColorMatrix in="SourceAlpha" type="matrix" values="0 0 0 0 0 0 0 0 0 0 0 0 0 0 0 0 0 0 127 0" result="hardAlpha"/>
<feOffset dx="1" dy="0.5"/>
<feGaussianBlur stdDeviation="0.75"/>
<feComposite in2="hardAlpha" operator="arithmetic" k2="-1" k3="1"/>
<feColorMatrix type="matrix" values="0 0 0 0 0.831373 0 0 0 0 0.576471 0 0 0 0 0.505882 0 0 0 1 0"/>
<feBlend mode="normal" in2="shape" result="effect1_innerShadow_1564_902"/>
</filter>
<filter id="filter7_f_1564_902" x="10.4395" y="14.291" width="7.54395" height="3.60742" filterUnits="userSpaceOnUse" color-interpolation-filters="sRGB">
<feFlood flood-opacity="0" result="BackgroundImageFix"/>
<feBlend mode="normal" in="SourceGraphic" in2="BackgroundImageFix" result="shape"/>
<feGaussianBlur stdDeviation="0.625" result="effect1_foregroundBlur_1564_902"/>
</filter>
<filter id="filter8_i_1564_902" x="9.86182" y="10.6328" width="8.08545" height="4.875" filterUnits="userSpaceOnUse" color-interpolation-filters="sRGB">
<feFlood flood-opacity="0" result="BackgroundImageFix"/>
<feBlend mode="normal" in="SourceGraphic" in2="BackgroundImageFix" result="shape"/>
<feColorMatrix in="SourceAlpha" type="matrix" values="0 0 0 0 0 0 0 0 0 0 0 0 0 0 0 0 0 0 127 0" result="hardAlpha"/>
<feOffset dx="0.5" dy="0.5"/>
<feGaussianBlur stdDeviation="0.75"/>
<feComposite in2="hardAlpha" operator="arithmetic" k2="-1" k3="1"/>
<feColorMatrix type="matrix" values="0 0 0 0 0.862745 0 0 0 0 0.643137 0 0 0 0 0.560784 0 0 0 1 0"/>
<feBlend mode="normal" in2="shape" result="effect1_innerShadow_1564_902"/>
</filter>
<filter id="filter9_f_1564_902" x="10.104" y="10.3018" width="7.87891" height="4.38672" filterUnits="userSpaceOnUse" color-interpolation-filters="sRGB">
<feFlood flood-opacity="0" result="BackgroundImageFix"/>
<feBlend mode="normal" in="SourceGraphic" in2="BackgroundImageFix" result="shape"/>
<feGaussianBlur stdDeviation="0.625" result="effect1_foregroundBlur_1564_902"/>
</filter>
<filter id="filter10_f_1564_902" x="7.75" y="0.253906" width="4.27734" height="8.49805" filterUnits="userSpaceOnUse" color-interpolation-filters="sRGB">
<feFlood flood-opacity="0" result="BackgroundImageFix"/>
<feBlend mode="normal" in="SourceGraphic" in2="BackgroundImageFix" result="shape"/>
<feGaussianBlur stdDeviation="0.625" result="effect1_foregroundBlur_1564_902"/>
</filter>
<linearGradient id="paint0_linear_1564_902" x1="12.0606" y1="8.04433" x2="3.54362" y2="24.2976" gradientUnits="userSpaceOnUse">
<stop stop-color="#FDC79F"/>
<stop offset="1" stop-color="#D59792"/>
</linearGradient>
<radialGradient id="paint1_radial_1564_902" cx="0" cy="0" r="1" gradientUnits="userSpaceOnUse" gradientTransform="translate(10.8812 1.63986) rotate(138.814) scale(2.77955 2.16871)">
<stop stop-color="#FFD1A8"/>
<stop offset="1" stop-color="#FFD1A8" stop-opacity="0"/>
</radialGradient>
<radialGradient id="paint2_radial_1564_902" cx="0" cy="0" r="1" gradientUnits="userSpaceOnUse" gradientTransform="translate(12.2204 11.6676) rotate(135.794) scale(8.0169 4.94222)">
<stop stop-color="#D09C82"/>
<stop offset="1" stop-color="#D09C82" stop-opacity="0"/>
</radialGradient>
<radialGradient id="paint3_radial_1564_902" cx="0" cy="0" r="1" gradientUnits="userSpaceOnUse" gradientTransform="translate(5.15612 24.5001) rotate(-62.612) scale(11.0566 19.6586)">
<stop stop-color="#B66F8A"/>
<stop offset="1" stop-color="#B66F8A" stop-opacity="0"/>
</radialGradient>
<radialGradient id="paint4_radial_1564_902" cx="0" cy="0" r="1" gradientUnits="userSpaceOnUse" gradientTransform="translate(12.4409 14.6518) rotate(180) scale(11.6505 17.9306)">
<stop offset="0.864" stop-color="#DDA488" stop-opacity="0"/>
<stop offset="1" stop-color="#DDA488"/>
</radialGradient>
<radialGradient id="paint5_radial_1564_902" cx="0" cy="0" r="1" gradientUnits="userSpaceOnUse" gradientTransform="translate(11.0399 7.53658) rotate(38.8999) scale(1.1717 1.54303)">
<stop stop-color="#F7C49C"/>
<stop offset="1" stop-color="#F7C49C" stop-opacity="0"/>
</radialGradient>
<linearGradient id="paint6_linear_1564_902" x1="7.90863" y1="22.3438" x2="7.90863" y2="19.7661" gradientUnits="userSpaceOnUse">
<stop stop-color="#B56F8A"/>
<stop offset="1" stop-color="#B56F8A" stop-opacity="0"/>
</linearGradient>
<linearGradient id="paint7_linear_1564_902" x1="11.8145" y1="9.67311" x2="11.8145" y2="21.1991" gradientUnits="userSpaceOnUse">
<stop stop-color="#9B6049"/>
<stop offset="1" stop-color="#A66663"/>
</linearGradient>
<linearGradient id="paint8_linear_1564_902" x1="16.7329" y1="9.3993" x2="11.2864" y2="9.3993" gradientUnits="userSpaceOnUse">
<stop stop-color="#EFC39B"/>
<stop offset="1" stop-color="#D5A184"/>
</linearGradient>
<radialGradient id="paint9_radial_1564_902" cx="0" cy="0" r="1" gradientUnits="userSpaceOnUse" gradientTransform="translate(10.5672 10.711) scale(4.96949 1.99325)">
<stop stop-color="#C28A6E"/>
<stop offset="1" stop-color="#C28A6E" stop-opacity="0"/>
</radialGradient>
<radialGradient id="paint10_radial_1564_902" cx="0" cy="0" r="1" gradientUnits="userSpaceOnUse" gradientTransform="translate(11.0532 11.3335) rotate(-142.633) scale(1.74083 1.16526)">
<stop stop-color="#A96F52"/>
<stop offset="1" stop-color="#A96F52" stop-opacity="0"/>
</radialGradient>
<linearGradient id="paint11_linear_1564_902" x1="15.77" y1="8.80386" x2="10.8095" y2="8.80386" gradientUnits="userSpaceOnUse">
<stop stop-color="#FFD1AB"/>
<stop offset="1" stop-color="#FFD1AB" stop-opacity="0"/>
</linearGradient>
<linearGradient id="paint12_linear_1564_902" x1="15.9253" y1="19.3056" x2="9.86157" y2="19.3056" gradientUnits="userSpaceOnUse">
<stop stop-color="#EDBB9D"/>
<stop offset="1" stop-color="#C68E82"/>
</linearGradient>
<radialGradient id="paint13_radial_1564_902" cx="0" cy="0" r="1" gradientUnits="userSpaceOnUse" gradientTransform="translate(11.2078 21.4289) scale(5.4851 2.08666)">
<stop stop-color="#B66E8D"/>
<stop offset="1" stop-color="#B66E8D" stop-opacity="0"/>
</radialGradient>
<radialGradient id="paint14_radial_1564_902" cx="0" cy="0" r="1" gradientUnits="userSpaceOnUse" gradientTransform="translate(11.4606 17.9271) scale(5.04727 1.13481)">
<stop stop-color="#B37365"/>
<stop offset="1" stop-color="#B37365" stop-opacity="0"/>
</radialGradient>
<linearGradient id="paint15_linear_1564_902" x1="15.8002" y1="18.7471" x2="11.4584" y2="18.7471" gradientUnits="userSpaceOnUse">
<stop stop-color="#EEB8A3"/>
<stop offset="1" stop-color="#EEB8A3" stop-opacity="0"/>
</linearGradient>
<linearGradient id="paint16_linear_1564_902" x1="16.8139" y1="16.2062" x2="9.8622" y2="16.2062" gradientUnits="userSpaceOnUse">
<stop stop-color="#F3BF9A"/>
<stop offset="1" stop-color="#D19B86"/>
</linearGradient>
<radialGradient id="paint17_radial_1564_902" cx="0" cy="0" r="1" gradientUnits="userSpaceOnUse" gradientTransform="translate(11.4057 18.4427) scale(6.91262 2.45907)">
<stop offset="0.14" stop-color="#BD7884"/>
<stop offset="1" stop-color="#BD7884" stop-opacity="0"/>
</radialGradient>
<radialGradient id="paint18_radial_1564_902" cx="0" cy="0" r="1" gradientUnits="userSpaceOnUse" gradientTransform="translate(12.0214 14.3605) scale(3.56497 1.44716)">
<stop stop-color="#AD7158"/>
<stop offset="1" stop-color="#AD7158" stop-opacity="0"/>
</radialGradient>
<linearGradient id="paint19_linear_1564_902" x1="16.4715" y1="15.8448" x2="11.0347" y2="15.8448" gradientUnits="userSpaceOnUse">
<stop stop-color="#FFCBAB"/>
<stop offset="1" stop-color="#FFCBAB" stop-opacity="0"/>
</linearGradient>
<linearGradient id="paint20_linear_1564_902" x1="17.4473" y1="12.8198" x2="9.86251" y2="12.8198" gradientUnits="userSpaceOnUse">
<stop stop-color="#F9C89D"/>
<stop offset="1" stop-color="#CE997E"/>
</linearGradient>
<radialGradient id="paint21_radial_1564_902" cx="0" cy="0" r="1" gradientUnits="userSpaceOnUse" gradientTransform="translate(11.7885 15.0076) scale(6.07031 2.81764)">
<stop stop-color="#C07D80"/>
<stop offset="1" stop-color="#C07D80" stop-opacity="0"/>
</radialGradient>
<linearGradient id="paint22_linear_1564_902" x1="16.454" y1="12.0693" x2="10.6558" y2="12.0693" gradientUnits="userSpaceOnUse">
<stop stop-color="#FFD1AB"/>
<stop offset="1" stop-color="#FFD1AB" stop-opacity="0"/>
</linearGradient>
<radialGradient id="paint23_radial_1564_902" cx="0" cy="0" r="1" gradientUnits="userSpaceOnUse" gradientTransform="translate(6.52941 3.62529) rotate(90) scale(4.74671 1.87338)">
<stop stop-color="#CD967A"/>
<stop offset="1" stop-color="#CD967A" stop-opacity="0"/>
</radialGradient>
<linearGradient id="paint24_linear_1564_902" x1="10.6853" y1="3.14866" x2="8.769" y2="3.14866" gradientUnits="userSpaceOnUse">
<stop stop-color="#FFD2AA"/>
<stop offset="1" stop-color="#FFD2AA" stop-opacity="0"/>
</linearGradient>
</defs>
</svg>
