<svg width="18" height="23" viewBox="0 0 18 23" fill="none" xmlns="http://www.w3.org/2000/svg">
<g filter="url(#filter0_i_1564_942)">
<path d="M12.375 19.9127C12.375 20.5628 12.1168 21.1862 11.6572 21.6458C11.1975 22.1055 10.5741 22.3637 9.92404 22.3637C9.274 22.3637 8.65058 22.1055 8.19093 21.6458C7.73127 21.1862 7.47304 20.5628 7.47304 19.9127V17.0927C7.47304 16.852 7.48954 16.612 7.52704 16.3727C7.54129 16.2856 7.55304 16.198 7.56229 16.1102C7.58929 15.8335 7.55629 15.4727 7.36879 15.2305L7.81729 14.7985C6.67526 14.2136 5.71712 13.3245 5.04873 12.2292C4.38033 11.134 4.0277 9.8753 4.02979 8.59222C4.02979 7.85797 4.14229 7.15072 4.35229 6.48622L5.09479 1.63672H11.133V1.63822C14.8628 1.71847 17.8545 4.15072 17.8545 8.59222C17.8545 11.203 16.6043 13.3052 14.7128 14.4902L14.7173 14.494C14.5883 14.584 14.4368 14.674 14.274 14.7722L14.2725 14.773C13.7363 15.0947 13.08 15.4877 12.735 16.1305C12.435 16.6877 12.3765 17.5922 12.3765 18.0115L12.375 18.0107V19.9127Z" fill="url(#paint0_linear_1564_942)"/>
<path d="M12.375 19.9127C12.375 20.5628 12.1168 21.1862 11.6572 21.6458C11.1975 22.1055 10.5741 22.3637 9.92404 22.3637C9.274 22.3637 8.65058 22.1055 8.19093 21.6458C7.73127 21.1862 7.47304 20.5628 7.47304 19.9127V17.0927C7.47304 16.852 7.48954 16.612 7.52704 16.3727C7.54129 16.2856 7.55304 16.198 7.56229 16.1102C7.58929 15.8335 7.55629 15.4727 7.36879 15.2305L7.81729 14.7985C6.67526 14.2136 5.71712 13.3245 5.04873 12.2292C4.38033 11.134 4.0277 9.8753 4.02979 8.59222C4.02979 7.85797 4.14229 7.15072 4.35229 6.48622L5.09479 1.63672H11.133V1.63822C14.8628 1.71847 17.8545 4.15072 17.8545 8.59222C17.8545 11.203 16.6043 13.3052 14.7128 14.4902L14.7173 14.494C14.5883 14.584 14.4368 14.674 14.274 14.7722L14.2725 14.773C13.7363 15.0947 13.08 15.4877 12.735 16.1305C12.435 16.6877 12.3765 17.5922 12.3765 18.0115L12.375 18.0107V19.9127Z" fill="url(#paint1_radial_1564_942)"/>
<path d="M12.375 19.9127C12.375 20.5628 12.1168 21.1862 11.6572 21.6458C11.1975 22.1055 10.5741 22.3637 9.92404 22.3637C9.274 22.3637 8.65058 22.1055 8.19093 21.6458C7.73127 21.1862 7.47304 20.5628 7.47304 19.9127V17.0927C7.47304 16.852 7.48954 16.612 7.52704 16.3727C7.54129 16.2856 7.55304 16.198 7.56229 16.1102C7.58929 15.8335 7.55629 15.4727 7.36879 15.2305L7.81729 14.7985C6.67526 14.2136 5.71712 13.3245 5.04873 12.2292C4.38033 11.134 4.0277 9.8753 4.02979 8.59222C4.02979 7.85797 4.14229 7.15072 4.35229 6.48622L5.09479 1.63672H11.133V1.63822C14.8628 1.71847 17.8545 4.15072 17.8545 8.59222C17.8545 11.203 16.6043 13.3052 14.7128 14.4902L14.7173 14.494C14.5883 14.584 14.4368 14.674 14.274 14.7722L14.2725 14.773C13.7363 15.0947 13.08 15.4877 12.735 16.1305C12.435 16.6877 12.3765 17.5922 12.3765 18.0115L12.375 18.0107V19.9127Z" fill="url(#paint2_radial_1564_942)"/>
</g>
<path d="M12.375 19.9127C12.375 20.5628 12.1168 21.1862 11.6572 21.6458C11.1975 22.1055 10.5741 22.3637 9.92404 22.3637C9.274 22.3637 8.65058 22.1055 8.19093 21.6458C7.73127 21.1862 7.47304 20.5628 7.47304 19.9127V17.0927C7.47304 16.852 7.48954 16.612 7.52704 16.3727C7.54129 16.2856 7.55304 16.198 7.56229 16.1102C7.58929 15.8335 7.55629 15.4727 7.36879 15.2305L7.81729 14.7985C6.67526 14.2136 5.71712 13.3245 5.04873 12.2292C4.38033 11.134 4.0277 9.8753 4.02979 8.59222C4.02979 7.85797 4.14229 7.15072 4.35229 6.48622L5.09479 1.63672H11.133V1.63822C14.8628 1.71847 17.8545 4.15072 17.8545 8.59222C17.8545 11.203 16.6043 13.3052 14.7128 14.4902L14.7173 14.494C14.5883 14.584 14.4368 14.674 14.274 14.7722L14.2725 14.773C13.7363 15.0947 13.08 15.4877 12.735 16.1305C12.435 16.6877 12.3765 17.5922 12.3765 18.0115L12.375 18.0107V19.9127Z" fill="url(#paint3_radial_1564_942)"/>
<path d="M12.375 19.9127C12.375 20.5628 12.1168 21.1862 11.6572 21.6458C11.1975 22.1055 10.5741 22.3637 9.92404 22.3637C9.274 22.3637 8.65058 22.1055 8.19093 21.6458C7.73127 21.1862 7.47304 20.5628 7.47304 19.9127V17.0927C7.47304 16.852 7.48954 16.612 7.52704 16.3727C7.54129 16.2856 7.55304 16.198 7.56229 16.1102C7.58929 15.8335 7.55629 15.4727 7.36879 15.2305L7.81729 14.7985C6.67526 14.2136 5.71712 13.3245 5.04873 12.2292C4.38033 11.134 4.0277 9.8753 4.02979 8.59222C4.02979 7.85797 4.14229 7.15072 4.35229 6.48622L5.09479 1.63672H11.133V1.63822C14.8628 1.71847 17.8545 4.15072 17.8545 8.59222C17.8545 11.203 16.6043 13.3052 14.7128 14.4902L14.7173 14.494C14.5883 14.584 14.4368 14.674 14.274 14.7722L14.2725 14.773C13.7363 15.0947 13.08 15.4877 12.735 16.1305C12.435 16.6877 12.3765 17.5922 12.3765 18.0115L12.375 18.0107V19.9127Z" fill="url(#paint4_radial_1564_942)"/>
<path d="M12.375 19.9127C12.375 20.5628 12.1168 21.1862 11.6572 21.6458C11.1975 22.1055 10.5741 22.3637 9.92404 22.3637C9.274 22.3637 8.65058 22.1055 8.19093 21.6458C7.73127 21.1862 7.47304 20.5628 7.47304 19.9127V17.0927C7.47304 16.852 7.48954 16.612 7.52704 16.3727C7.54129 16.2856 7.55304 16.198 7.56229 16.1102C7.58929 15.8335 7.55629 15.4727 7.36879 15.2305L7.81729 14.7985C6.67526 14.2136 5.71712 13.3245 5.04873 12.2292C4.38033 11.134 4.0277 9.8753 4.02979 8.59222C4.02979 7.85797 4.14229 7.15072 4.35229 6.48622L5.09479 1.63672H11.133V1.63822C14.8628 1.71847 17.8545 4.15072 17.8545 8.59222C17.8545 11.203 16.6043 13.3052 14.7128 14.4902L14.7173 14.494C14.5883 14.584 14.4368 14.674 14.274 14.7722L14.2725 14.773C13.7363 15.0947 13.08 15.4877 12.735 16.1305C12.435 16.6877 12.3765 17.5922 12.3765 18.0115L12.375 18.0107V19.9127Z" fill="url(#paint5_radial_1564_942)"/>
<g filter="url(#filter1_f_1564_942)">
<path d="M3.18038 4.43958C3.18038 4.79058 3.27188 5.11983 3.43238 5.40183C2.79113 5.72283 2.34863 6.40683 2.34863 7.19733C2.34863 7.81233 2.61563 8.36208 3.03638 8.72733C2.82774 8.91412 2.66115 9.1431 2.54763 9.3991C2.43411 9.6551 2.37625 9.93229 2.37788 10.2123C2.37788 10.9916 2.81663 11.6643 3.45113 11.9748C3.14993 12.3341 2.98572 12.7885 2.98763 13.2573C2.98763 14.3306 3.82238 15.2006 4.85213 15.2006H6.91688C7.94663 15.2006 8.78063 14.3306 8.78063 13.2581C8.78233 12.9763 8.72363 12.6974 8.60849 12.4402C8.49335 12.183 8.32444 11.9535 8.11313 11.7671C8.34641 11.5809 8.53443 11.3443 8.66304 11.075C8.79165 10.8057 8.8575 10.5108 8.85563 10.2123C8.85715 9.92908 8.79788 9.64881 8.68182 9.39043C8.56577 9.13205 8.39562 8.90158 8.18288 8.71458C8.39634 8.52392 8.56679 8.29003 8.68291 8.02843C8.79903 7.76684 8.85817 7.48353 8.85638 7.19733C8.85638 6.65133 8.64563 6.15708 8.30438 5.79708C8.64488 5.45358 8.85638 4.97208 8.85638 4.43958C8.85638 3.39483 8.04413 2.54883 7.04213 2.54883H4.99463C3.99188 2.54883 3.17963 3.39483 3.17963 4.43883" fill="#C28769"/>
</g>
<g filter="url(#filter2_f_1564_942)">
<path d="M14.2381 14.2384C11.5059 12.5577 8.7631 13.7374 8.05285 14.2384L7.42285 13.4269C11.4579 11.5054 13.6074 13.1577 14.2381 14.2384Z" fill="#C9867F"/>
</g>
<path d="M4.34136 11.4218C3.14346 11.4218 2.17236 12.3929 2.17236 13.5908C2.17236 14.7887 3.14346 15.7598 4.34136 15.7598H6.74436C7.94227 15.7598 8.91336 14.7887 8.91336 13.5908C8.91336 12.3929 7.94227 11.4218 6.74436 11.4218H4.34136Z" fill="url(#paint6_linear_1564_942)"/>
<path d="M4.34136 11.4218C3.14346 11.4218 2.17236 12.3929 2.17236 13.5908C2.17236 14.7887 3.14346 15.7598 4.34136 15.7598H6.74436C7.94227 15.7598 8.91336 14.7887 8.91336 13.5908C8.91336 12.3929 7.94227 11.4218 6.74436 11.4218H4.34136Z" fill="url(#paint7_linear_1564_942)"/>
<path d="M4.34136 11.4218C3.14346 11.4218 2.17236 12.3929 2.17236 13.5908C2.17236 14.7887 3.14346 15.7598 4.34136 15.7598H6.74436C7.94227 15.7598 8.91336 14.7887 8.91336 13.5908C8.91336 12.3929 7.94227 11.4218 6.74436 11.4218H4.34136Z" fill="url(#paint8_radial_1564_942)"/>
<path d="M4.34136 11.4218C3.14346 11.4218 2.17236 12.3929 2.17236 13.5908C2.17236 14.7887 3.14346 15.7598 4.34136 15.7598H6.74436C7.94227 15.7598 8.91336 14.7887 8.91336 13.5908C8.91336 12.3929 7.94227 11.4218 6.74436 11.4218H4.34136Z" fill="url(#paint9_radial_1564_942)"/>
<path d="M4.34136 11.4218C3.14346 11.4218 2.17236 12.3929 2.17236 13.5908C2.17236 14.7887 3.14346 15.7598 4.34136 15.7598H6.74436C7.94227 15.7598 8.91336 14.7887 8.91336 13.5908C8.91336 12.3929 7.94227 11.4218 6.74436 11.4218H4.34136Z" fill="url(#paint10_radial_1564_942)"/>
<path d="M2.39551 3.74617V3.74692C2.39551 4.91252 3.34041 5.85742 4.50601 5.85742H6.88951C8.0551 5.85742 9.00001 4.91252 9.00001 3.74692V3.74617C9.00001 2.58057 8.0551 1.63567 6.88951 1.63567H4.50601C3.34041 1.63567 2.39551 2.58057 2.39551 3.74617Z" fill="url(#paint11_linear_1564_942)"/>
<path d="M2.39551 3.74617V3.74692C2.39551 4.91252 3.34041 5.85742 4.50601 5.85742H6.88951C8.0551 5.85742 9.00001 4.91252 9.00001 3.74692V3.74617C9.00001 2.58057 8.0551 1.63567 6.88951 1.63567H4.50601C3.34041 1.63567 2.39551 2.58057 2.39551 3.74617Z" fill="url(#paint12_radial_1564_942)"/>
<path d="M2.39551 3.74617V3.74692C2.39551 4.91252 3.34041 5.85742 4.50601 5.85742H6.88951C8.0551 5.85742 9.00001 4.91252 9.00001 3.74692V3.74617C9.00001 2.58057 8.0551 1.63567 6.88951 1.63567H4.50601C3.34041 1.63567 2.39551 2.58057 2.39551 3.74617Z" fill="url(#paint13_radial_1564_942)"/>
<path d="M2.39551 3.74617V3.74692C2.39551 4.91252 3.34041 5.85742 4.50601 5.85742H6.88951C8.0551 5.85742 9.00001 4.91252 9.00001 3.74692V3.74617C9.00001 2.58057 8.0551 1.63567 6.88951 1.63567H4.50601C3.34041 1.63567 2.39551 2.58057 2.39551 3.74617Z" fill="url(#paint14_radial_1564_942)"/>
<path d="M1.42822 6.7851V6.86535C1.42822 8.07071 2.40536 9.04785 3.61072 9.04785H6.81847C8.02383 9.04785 9.00097 8.07071 9.00097 6.86535V6.7851C9.00097 5.57974 8.02383 4.6026 6.81847 4.6026H3.61072C2.40536 4.6026 1.42822 5.57974 1.42822 6.7851Z" fill="url(#paint15_linear_1564_942)"/>
<path d="M1.42822 6.7851V6.86535C1.42822 8.07071 2.40536 9.04785 3.61072 9.04785H6.81847C8.02383 9.04785 9.00097 8.07071 9.00097 6.86535V6.7851C9.00097 5.57974 8.02383 4.6026 6.81847 4.6026H3.61072C2.40536 4.6026 1.42822 5.57974 1.42822 6.7851Z" fill="url(#paint16_radial_1564_942)"/>
<path d="M1.42822 6.7851V6.86535C1.42822 8.07071 2.40536 9.04785 3.61072 9.04785H6.81847C8.02383 9.04785 9.00097 8.07071 9.00097 6.86535V6.7851C9.00097 5.57974 8.02383 4.6026 6.81847 4.6026H3.61072C2.40536 4.6026 1.42822 5.57974 1.42822 6.7851Z" fill="url(#paint17_radial_1564_942)"/>
<path d="M1.42822 6.7851V6.86535C1.42822 8.07071 2.40536 9.04785 3.61072 9.04785H6.81847C8.02383 9.04785 9.00097 8.07071 9.00097 6.86535V6.7851C9.00097 5.57974 8.02383 4.6026 6.81847 4.6026H3.61072C2.40536 4.6026 1.42822 5.57974 1.42822 6.7851Z" fill="url(#paint18_radial_1564_942)"/>
<path d="M3.63616 8.01651C2.43536 8.01651 1.46191 8.98978 1.46191 10.1904C1.46191 11.391 2.43536 12.3643 3.63616 12.3643H6.82591C8.02672 12.3643 9.00016 11.391 9.00016 10.1904C9.00016 8.98978 8.02672 8.01651 6.82591 8.01651H3.63616Z" fill="url(#paint19_linear_1564_942)"/>
<path d="M3.63616 8.01651C2.43536 8.01651 1.46191 8.98978 1.46191 10.1904C1.46191 11.391 2.43536 12.3643 3.63616 12.3643H6.82591C8.02672 12.3643 9.00016 11.391 9.00016 10.1904C9.00016 8.98978 8.02672 8.01651 6.82591 8.01651H3.63616Z" fill="url(#paint20_radial_1564_942)"/>
<path d="M3.63616 8.01651C2.43536 8.01651 1.46191 8.98978 1.46191 10.1904C1.46191 11.391 2.43536 12.3643 3.63616 12.3643H6.82591C8.02672 12.3643 9.00016 11.391 9.00016 10.1904C9.00016 8.98978 8.02672 8.01651 6.82591 8.01651H3.63616Z" fill="url(#paint21_radial_1564_942)"/>
<path d="M3.63616 8.01651C2.43536 8.01651 1.46191 8.98978 1.46191 10.1904C1.46191 11.391 2.43536 12.3643 3.63616 12.3643H6.82591C8.02672 12.3643 9.00016 11.391 9.00016 10.1904C9.00016 8.98978 8.02672 8.01651 6.82591 8.01651H3.63616Z" fill="url(#paint22_radial_1564_942)"/>
<defs>
<filter id="filter0_i_1564_942" x="4.02979" y="1.63672" width="14.3247" height="20.7266" filterUnits="userSpaceOnUse" color-interpolation-filters="sRGB">
<feFlood flood-opacity="0" result="BackgroundImageFix"/>
<feBlend mode="normal" in="SourceGraphic" in2="BackgroundImageFix" result="shape"/>
<feColorMatrix in="SourceAlpha" type="matrix" values="0 0 0 0 0 0 0 0 0 0 0 0 0 0 0 0 0 0 127 0" result="hardAlpha"/>
<feOffset dx="0.5"/>
<feGaussianBlur stdDeviation="0.5"/>
<feComposite in2="hardAlpha" operator="arithmetic" k2="-1" k3="1"/>
<feColorMatrix type="matrix" values="0 0 0 0 0.839216 0 0 0 0 0.698039 0 0 0 0 0.572549 0 0 0 1 0"/>
<feBlend mode="normal" in2="shape" result="effect1_innerShadow_1564_942"/>
</filter>
<filter id="filter1_f_1564_942" x="0.348633" y="0.548828" width="10.5078" height="16.6514" filterUnits="userSpaceOnUse" color-interpolation-filters="sRGB">
<feFlood flood-opacity="0" result="BackgroundImageFix"/>
<feBlend mode="normal" in="SourceGraphic" in2="BackgroundImageFix" result="shape"/>
<feGaussianBlur stdDeviation="1" result="effect1_foregroundBlur_1564_942"/>
</filter>
<filter id="filter2_f_1564_942" x="5.92285" y="11.043" width="9.81543" height="4.69531" filterUnits="userSpaceOnUse" color-interpolation-filters="sRGB">
<feFlood flood-opacity="0" result="BackgroundImageFix"/>
<feBlend mode="normal" in="SourceGraphic" in2="BackgroundImageFix" result="shape"/>
<feGaussianBlur stdDeviation="0.75" result="effect1_foregroundBlur_1564_942"/>
</filter>
<linearGradient id="paint0_linear_1564_942" x1="17.085" y1="6.07897" x2="6.21454" y2="22.3645" gradientUnits="userSpaceOnUse">
<stop stop-color="#F8C499"/>
<stop offset="1" stop-color="#DCA08E"/>
</linearGradient>
<radialGradient id="paint1_radial_1564_942" cx="0" cy="0" r="1" gradientUnits="userSpaceOnUse" gradientTransform="translate(8.17804 16.3598) rotate(90.785) scale(5.13329 2.12844)">
<stop stop-color="#BD7B6C"/>
<stop offset="1" stop-color="#BD7B6C" stop-opacity="0"/>
</radialGradient>
<radialGradient id="paint2_radial_1564_942" cx="0" cy="0" r="1" gradientUnits="userSpaceOnUse" gradientTransform="translate(10.942 12.6848) rotate(-63.938) scale(5.43155 10.1078)">
<stop stop-color="#D9998E"/>
<stop offset="1" stop-color="#D9998E" stop-opacity="0"/>
</radialGradient>
<radialGradient id="paint3_radial_1564_942" cx="0" cy="0" r="1" gradientUnits="userSpaceOnUse" gradientTransform="translate(15.516 5.67547) rotate(150.369) scale(5.26221 6.03869)">
<stop stop-color="#FFD2AA"/>
<stop offset="1" stop-color="#FFD2AA" stop-opacity="0"/>
</radialGradient>
<radialGradient id="paint4_radial_1564_942" cx="0" cy="0" r="1" gradientUnits="userSpaceOnUse" gradientTransform="translate(12.0668 19.5632) scale(3.48297 7.47388)">
<stop stop-color="#FDC5A5"/>
<stop offset="1" stop-color="#FDC5A5" stop-opacity="0"/>
</radialGradient>
<radialGradient id="paint5_radial_1564_942" cx="0" cy="0" r="1" gradientUnits="userSpaceOnUse" gradientTransform="translate(10.1007 7.65894) rotate(90) scale(15.0171 9.70417)">
<stop offset="0.902" stop-color="#BA738B" stop-opacity="0"/>
<stop offset="1" stop-color="#BA738B"/>
</radialGradient>
<linearGradient id="paint6_linear_1564_942" x1="2.17236" y1="13.5908" x2="8.91261" y2="13.5908" gradientUnits="userSpaceOnUse">
<stop stop-color="#C48D7B"/>
<stop offset="1" stop-color="#EDB895"/>
</linearGradient>
<linearGradient id="paint7_linear_1564_942" x1="5.54211" y1="16.0245" x2="5.54211" y2="14.6168" gradientUnits="userSpaceOnUse">
<stop stop-color="#B67186"/>
<stop offset="1" stop-color="#B67186" stop-opacity="0"/>
</linearGradient>
<radialGradient id="paint8_radial_1564_942" cx="0" cy="0" r="1" gradientUnits="userSpaceOnUse" gradientTransform="translate(7.90386 13.095) rotate(180) scale(1.93564 1.50267)">
<stop stop-color="#F9C6AA"/>
<stop offset="1" stop-color="#F9C6AA" stop-opacity="0"/>
</radialGradient>
<radialGradient id="paint9_radial_1564_942" cx="0" cy="0" r="1" gradientUnits="userSpaceOnUse" gradientTransform="translate(7.65786 13.5908) rotate(178.647) scale(5.48824 6.0032)">
<stop offset="0.808" stop-color="#DBA188" stop-opacity="0"/>
<stop offset="1" stop-color="#DBA188"/>
</radialGradient>
<radialGradient id="paint10_radial_1564_942" cx="0" cy="0" r="1" gradientUnits="userSpaceOnUse" gradientTransform="translate(5.12361 12.375) rotate(90) scale(0.698475 3.67378)">
<stop stop-color="#BC7761"/>
<stop offset="1" stop-color="#BC7761" stop-opacity="0"/>
</radialGradient>
<linearGradient id="paint11_linear_1564_942" x1="3.07651" y1="4.84942" x2="8.40526" y2="3.09067" gradientUnits="userSpaceOnUse">
<stop stop-color="#CB9779"/>
<stop offset="1" stop-color="#F7C59B"/>
</linearGradient>
<radialGradient id="paint12_radial_1564_942" cx="0" cy="0" r="1" gradientUnits="userSpaceOnUse" gradientTransform="translate(5.63176 5.19442) rotate(-90) scale(0.801285 3.30138)">
<stop stop-color="#C58C65"/>
<stop offset="1" stop-color="#C58C65" stop-opacity="0"/>
</radialGradient>
<radialGradient id="paint13_radial_1564_942" cx="0" cy="0" r="1" gradientUnits="userSpaceOnUse" gradientTransform="translate(7.78651 3.01792) rotate(180) scale(2.08871 1.78677)">
<stop stop-color="#FFD2AB"/>
<stop offset="1" stop-color="#FFD2AB" stop-opacity="0"/>
</radialGradient>
<radialGradient id="paint14_radial_1564_942" cx="0" cy="0" r="1" gradientUnits="userSpaceOnUse" gradientTransform="translate(7.77151 3.74542) rotate(178.656) scale(5.37737 5.8417)">
<stop offset="0.808" stop-color="#D8A385" stop-opacity="0"/>
<stop offset="1" stop-color="#D8A385"/>
</radialGradient>
<linearGradient id="paint15_linear_1564_942" x1="2.20897" y1="7.9866" x2="8.20897" y2="5.83035" gradientUnits="userSpaceOnUse">
<stop stop-color="#CB9879"/>
<stop offset="1" stop-color="#FAC79C"/>
</linearGradient>
<radialGradient id="paint16_radial_1564_942" cx="0" cy="0" r="1" gradientUnits="userSpaceOnUse" gradientTransform="translate(5.13847 8.3496) rotate(-90) scale(0.84375 3.78515)">
<stop stop-color="#D59877"/>
<stop offset="1" stop-color="#D59877" stop-opacity="0"/>
</radialGradient>
<radialGradient id="paint17_radial_1564_942" cx="0" cy="0" r="1" gradientUnits="userSpaceOnUse" gradientTransform="translate(7.55047 6.40335) rotate(-180) scale(2.01169 1.58049)">
<stop stop-color="#FFD1AB"/>
<stop offset="1" stop-color="#FFD1AB" stop-opacity="0"/>
</radialGradient>
<radialGradient id="paint18_radial_1564_942" cx="0" cy="0" r="1" gradientUnits="userSpaceOnUse" gradientTransform="translate(7.59172 6.8256) rotate(178.766) scale(6.16509 6.15156)">
<stop offset="0.808" stop-color="#DBA486" stop-opacity="0"/>
<stop offset="1" stop-color="#DBA486"/>
</radialGradient>
<linearGradient id="paint19_linear_1564_942" x1="1.46191" y1="10.1908" x2="8.23366" y2="10.1908" gradientUnits="userSpaceOnUse">
<stop stop-color="#C99479"/>
<stop offset="1" stop-color="#F7BF96"/>
</linearGradient>
<radialGradient id="paint20_radial_1564_942" cx="0" cy="0" r="1" gradientUnits="userSpaceOnUse" gradientTransform="translate(4.12066 12.5555) rotate(-90) scale(1.78526 5.95088)">
<stop stop-color="#BD7B81"/>
<stop offset="1" stop-color="#BD7B81" stop-opacity="0"/>
</radialGradient>
<radialGradient id="paint21_radial_1564_942" cx="0" cy="0" r="1" gradientUnits="userSpaceOnUse" gradientTransform="translate(7.55716 9.77751) rotate(180) scale(2.00265 1.54591)">
<stop stop-color="#FFD0AC"/>
<stop offset="1" stop-color="#FFD0AC" stop-opacity="0"/>
</radialGradient>
<radialGradient id="paint22_radial_1564_942" cx="0" cy="0" r="1" gradientUnits="userSpaceOnUse" gradientTransform="translate(7.59917 10.19) rotate(178.787) scale(6.13733 6.01699)">
<stop offset="0.808" stop-color="#DCA488" stop-opacity="0"/>
<stop offset="1" stop-color="#DCA488"/>
</radialGradient>
</defs>
</svg>
