<svg width="22" height="22" viewBox="0 0 22 22" fill="none" xmlns="http://www.w3.org/2000/svg">
<path d="M10.9974 20.167C12.0057 20.167 12.8307 19.342 12.8307 18.3337H9.16406C9.16406 19.342 9.98906 20.167 10.9974 20.167ZM16.4974 14.667V10.0837C16.4974 7.26949 15.0032 4.91366 12.3724 4.29033V3.66699C12.3724 2.90616 11.7582 2.29199 10.9974 2.29199C10.2366 2.29199 9.6224 2.90616 9.6224 3.66699V4.29033C7.00073 4.91366 5.4974 7.26033 5.4974 10.0837V14.667L3.66406 16.5003V17.417H18.3307V16.5003L16.4974 14.667ZM14.6641 15.5837H7.33073V10.0837C7.33073 7.81033 8.7149 5.95866 10.9974 5.95866C13.2799 5.95866 14.6641 7.81033 14.6641 10.0837V15.5837Z" fill="#010B00"/>
</svg>
