<svg width="22" height="22" viewBox="0 0 22 22" fill="none" xmlns="http://www.w3.org/2000/svg">
<path d="M18.5599 11.5226V10.4707L19.8799 9.31572C20.1232 9.10126 20.2829 8.80768 20.3307 8.48687C20.3785 8.16607 20.3114 7.83869 20.1412 7.5626L18.5187 4.8126C18.3981 4.60378 18.2248 4.43033 18.016 4.30966C17.8072 4.18899 17.5704 4.12534 17.3293 4.1251C17.1799 4.12395 17.0313 4.14717 16.8893 4.19385L15.2187 4.7576C14.9302 4.56593 14.6294 4.39367 14.3181 4.24197L13.9674 2.50947C13.9046 2.19295 13.7324 1.90862 13.481 1.70627C13.2296 1.50391 12.9151 1.39641 12.5924 1.4026H9.37493C9.05228 1.39641 8.73774 1.50391 8.48636 1.70627C8.23499 1.90862 8.0628 2.19295 7.99993 2.50947L7.6493 4.24197C7.33576 4.39363 7.03259 4.56589 6.7418 4.7576L5.10555 4.16635C4.96207 4.12896 4.81348 4.11503 4.66555 4.1251C4.42443 4.12534 4.18761 4.18899 3.97885 4.30966C3.77009 4.43033 3.59674 4.60378 3.47618 4.8126L1.85368 7.5626C1.69321 7.83828 1.63358 8.16117 1.685 8.47598C1.73642 8.79079 1.8957 9.07793 2.13555 9.28822L3.43493 10.4776V11.5295L2.13555 12.6845C1.88892 12.8962 1.72529 13.1885 1.67369 13.5094C1.62209 13.8304 1.68586 14.1592 1.85368 14.4376L3.47618 17.1876C3.59674 17.3964 3.77009 17.5699 3.97885 17.6905C4.18761 17.8112 4.42443 17.8748 4.66555 17.8751C4.81498 17.8762 4.9636 17.853 5.10555 17.8063L6.77618 17.2426C7.06461 17.4343 7.36548 17.6065 7.6768 17.7582L8.02743 19.4907C8.0903 19.8072 8.26249 20.0916 8.51386 20.2939C8.76524 20.4963 9.07978 20.6038 9.40243 20.5976H12.6474C12.9701 20.6038 13.2846 20.4963 13.536 20.2939C13.7874 20.0916 13.9596 19.8072 14.0224 19.4907L14.3731 17.7582C14.6866 17.6066 14.9898 17.4343 15.2806 17.2426L16.9443 17.8063C17.0863 17.853 17.2349 17.8762 17.3843 17.8751C17.6254 17.8748 17.8622 17.8112 18.071 17.6905C18.2798 17.5699 18.4531 17.3964 18.5737 17.1876L20.1412 14.4376C20.3016 14.1619 20.3613 13.839 20.3099 13.5242C20.2584 13.2094 20.0992 12.9223 19.8593 12.712L18.5599 11.5226ZM17.3293 16.5001L14.9712 15.7026C14.4192 16.1702 13.7883 16.5357 13.1081 16.782L12.6199 19.2501H9.37493L8.8868 16.8095C8.21197 16.5562 7.58448 16.1913 7.03055 15.7301L4.66555 16.5001L3.04305 13.7501L4.91305 12.1001C4.78593 11.3884 4.78593 10.6599 4.91305 9.94822L3.04305 8.2501L4.66555 5.5001L7.02368 6.2976C7.5757 5.83002 8.20659 5.46452 8.8868 5.21822L9.37493 2.7501H12.6199L13.1081 5.19072C13.7829 5.44401 14.4104 5.80888 14.9643 6.2701L17.3293 5.5001L18.9518 8.2501L17.0818 9.9001C17.2089 10.6118 17.2089 11.3403 17.0818 12.052L18.9518 13.7501L17.3293 16.5001Z" fill="#010B00"/>
<path d="M10.9961 15.125C10.1802 15.125 9.38272 14.8831 8.70437 14.4298C8.02602 13.9766 7.4973 13.3323 7.18509 12.5786C6.87288 11.8248 6.79119 10.9954 6.95036 10.1953C7.10952 9.39508 7.50239 8.66008 8.07928 8.08319C8.65617 7.50629 9.39118 7.11343 10.1913 6.95426C10.9915 6.7951 11.8209 6.87679 12.5747 7.189C13.3284 7.50121 13.9726 8.02992 14.4259 8.70827C14.8792 9.38663 15.1211 10.1842 15.1211 11C15.1266 11.5432 15.0237 12.0821 14.8183 12.5851C14.613 13.088 14.3093 13.545 13.9252 13.9291C13.5411 14.3133 13.0841 14.6169 12.5812 14.8222C12.0782 15.0276 11.5393 15.1305 10.9961 15.125ZM10.9961 8.25C10.6326 8.24153 10.2713 8.30688 9.93378 8.44208C9.59631 8.57729 9.28977 8.77954 9.0327 9.03661C8.77563 9.29367 8.57338 9.60021 8.43818 9.93769C8.30297 10.2752 8.23763 10.6366 8.2461 11C8.23763 11.3635 8.30297 11.7248 8.43818 12.0623C8.57338 12.3998 8.77563 12.7063 9.0327 12.9634C9.28977 13.2205 9.59631 13.4227 9.93378 13.5579C10.2713 13.6931 10.6326 13.7585 10.9961 13.75C11.3595 13.7585 11.7209 13.6931 12.0584 13.5579C12.3959 13.4227 12.7024 13.2205 12.9595 12.9634C13.2166 12.7063 13.4188 12.3998 13.554 12.0623C13.6892 11.7248 13.7546 11.3635 13.7461 11C13.7546 10.6366 13.6892 10.2752 13.554 9.93769C13.4188 9.60021 13.2166 9.29367 12.9595 9.03661C12.7024 8.77954 12.3959 8.57729 12.0584 8.44208C11.7209 8.30688 11.3595 8.24153 10.9961 8.25Z" fill="#010B00"/>
</svg>
