<svg width="22" height="22" viewBox="0 0 22 22" fill="none" xmlns="http://www.w3.org/2000/svg">
<path d="M19.8416 18.2211C18.5328 15.9584 16.5158 14.3359 14.162 13.5667C15.3263 12.8736 16.2309 11.8174 16.7369 10.5604C17.2428 9.30345 17.3222 7.91512 16.9627 6.60866C16.6033 5.3022 15.8249 4.14985 14.7472 3.32857C13.6695 2.50729 12.3519 2.0625 10.9969 2.0625C9.6419 2.0625 8.32436 2.50729 7.24662 3.32857C6.16887 4.14985 5.39051 5.3022 5.03107 6.60866C4.67164 7.91512 4.75099 9.30345 5.25696 10.5604C5.76292 11.8174 6.66752 12.8736 7.83183 13.5667C5.478 14.335 3.46105 15.9575 2.15222 18.2211C2.10422 18.2993 2.07239 18.3864 2.05859 18.4772C2.04479 18.568 2.04931 18.6606 2.07189 18.7496C2.09446 18.8385 2.13463 18.9221 2.19002 18.9953C2.24542 19.0685 2.31491 19.1299 2.39441 19.1758C2.47391 19.2218 2.5618 19.2513 2.6529 19.2627C2.74399 19.2741 2.83645 19.2671 2.92482 19.2422C3.01318 19.2173 3.09566 19.175 3.16739 19.1177C3.23912 19.0604 3.29864 18.9893 3.34245 18.9086C4.96152 16.1105 7.82324 14.4398 10.9969 14.4398C14.1706 14.4398 17.0323 16.1105 18.6514 18.9086C18.6952 18.9893 18.7547 19.0604 18.8264 19.1177C18.8982 19.175 18.9806 19.2173 19.069 19.2422C19.1574 19.2671 19.2498 19.2741 19.3409 19.2627C19.432 19.2513 19.5199 19.2218 19.5994 19.1758C19.6789 19.1299 19.7484 19.0685 19.8038 18.9953C19.8592 18.9221 19.8994 18.8385 19.9219 18.7496C19.9445 18.6606 19.949 18.568 19.9352 18.4772C19.9214 18.3864 19.8896 18.2993 19.8416 18.2211ZM6.18441 8.25234C6.18441 7.30052 6.46665 6.37007 6.99546 5.57866C7.52426 4.78725 8.27587 4.17041 9.15524 3.80617C10.0346 3.44192 11.0022 3.34662 11.9358 3.53231C12.8693 3.718 13.7268 4.17635 14.3999 4.84939C15.0729 5.52243 15.5312 6.37993 15.7169 7.31347C15.9026 8.247 15.8073 9.21463 15.4431 10.094C15.0788 10.9734 14.462 11.725 13.6706 12.2538C12.8792 12.7826 11.9487 13.0648 10.9969 13.0648C9.72097 13.0635 8.49769 12.556 7.59546 11.6538C6.69324 10.7516 6.18577 9.52827 6.18441 8.25234Z" fill="#010B00"/>
</svg>
