<svg width="20" height="20" viewBox="0 0 20 20" fill="none" xmlns="http://www.w3.org/2000/svg">
<path fill-rule="evenodd" clip-rule="evenodd" d="M10.0003 1.66699C14.6028 1.66699 18.3337 5.39783 18.3337 10.0003C18.3366 11.9236 17.6715 13.7881 16.452 15.2753L16.4687 15.2937L16.3587 15.387C15.5772 16.3113 14.6033 17.0539 13.5051 17.5629C12.4069 18.0719 11.2108 18.3349 10.0003 18.3337C7.542 18.3337 5.33367 17.2695 3.80867 15.5778L3.642 15.3862L3.532 15.2945L3.54867 15.2745C2.3293 13.7876 1.66419 11.9233 1.667 10.0003C1.667 5.39783 5.39783 1.66699 10.0003 1.66699ZM10.0003 14.167C8.45033 14.167 7.0495 14.6603 6.00617 15.3387C7.15818 16.203 8.56009 16.6693 10.0003 16.667C11.4406 16.6693 12.8425 16.203 13.9945 15.3387C12.8023 14.5747 11.4163 14.1681 10.0003 14.167ZM10.0003 3.33366C8.74577 3.33362 7.51666 3.68759 6.45427 4.35487C5.39188 5.02215 4.53934 5.97566 3.99463 7.1058C3.44993 8.23595 3.23517 9.49686 3.37504 10.7436C3.51492 11.9903 4.00374 13.1723 4.78533 14.1537C6.13617 13.1845 7.9795 12.5003 10.0003 12.5003C12.0212 12.5003 13.8645 13.1845 15.2153 14.1537C15.9969 13.1723 16.4858 11.9903 16.6256 10.7436C16.7655 9.49686 16.5507 8.23595 16.006 7.1058C15.4613 5.97566 14.6088 5.02215 13.5464 4.35487C12.484 3.68759 11.2549 3.33362 10.0003 3.33366ZM10.0003 5.00033C10.8844 5.00033 11.7322 5.35152 12.3574 5.97664C12.9825 6.60176 13.3337 7.4496 13.3337 8.33366C13.3337 9.21771 12.9825 10.0656 12.3574 10.6907C11.7322 11.3158 10.8844 11.667 10.0003 11.667C9.11628 11.667 8.26843 11.3158 7.64331 10.6907C7.01819 10.0656 6.667 9.21771 6.667 8.33366C6.667 7.4496 7.01819 6.60176 7.64331 5.97664C8.26843 5.35152 9.11628 5.00033 10.0003 5.00033ZM10.0003 6.66699C9.55831 6.66699 9.13438 6.84259 8.82182 7.15515C8.50926 7.46771 8.33367 7.89163 8.33367 8.33366C8.33367 8.77569 8.50926 9.19961 8.82182 9.51217C9.13438 9.82473 9.55831 10.0003 10.0003 10.0003C10.4424 10.0003 10.8663 9.82473 11.1788 9.51217C11.4914 9.19961 11.667 8.77569 11.667 8.33366C11.667 7.89163 11.4914 7.46771 11.1788 7.15515C10.8663 6.84259 10.4424 6.66699 10.0003 6.66699Z" fill="black"/>
</svg>
