<svg width="28" height="28" viewBox="0 0 28 28" fill="none" xmlns="http://www.w3.org/2000/svg">
<path d="M25.3255 13.1749L15.9922 3.84158C15.829 3.67847 15.6211 3.5674 15.3949 3.5224C15.1686 3.47741 14.934 3.50051 14.7209 3.58879C14.5077 3.67708 14.3255 3.82657 14.1973 4.01838C14.0691 4.21019 14.0007 4.43571 14.0007 4.66642V8.80225C10.8137 9.09718 7.85142 10.5708 5.69362 12.9346C3.53583 15.2985 2.3378 18.3825 2.33398 21.5831V23.3331C2.33417 23.5753 2.40971 23.8114 2.55014 24.0087C2.69056 24.206 2.88891 24.3547 3.11766 24.4342C3.34642 24.5137 3.59425 24.5201 3.82677 24.4524C4.05929 24.3847 4.26498 24.2463 4.41532 24.0564C5.5583 22.6972 6.9607 21.5794 8.54059 20.7683C10.1205 19.9572 11.8462 19.4692 13.6168 19.3326C13.6751 19.3256 13.821 19.3139 14.0007 19.3023V23.3331C14.0007 23.5638 14.0691 23.7893 14.1973 23.9811C14.3255 24.1729 14.5077 24.3224 14.7209 24.4107C14.934 24.499 15.1686 24.5221 15.3949 24.4771C15.6211 24.4321 15.829 24.321 15.9922 24.1579L25.3255 14.8246C25.5442 14.6058 25.6671 14.3091 25.6671 13.9998C25.6671 13.6904 25.5442 13.3937 25.3255 13.1749ZM16.334 20.5168V18.0831C16.334 17.7737 16.2111 17.4769 15.9923 17.2581C15.7735 17.0393 15.4767 16.9164 15.1673 16.9164C14.8698 16.9164 13.6553 16.9748 13.345 17.0156C10.2007 17.3053 7.20764 18.4999 4.72798 20.4549C5.00944 17.8818 6.23011 15.5028 8.1563 13.7736C10.0825 12.0444 12.5788 11.0864 15.1673 11.0831C15.4767 11.0831 15.7735 10.9602 15.9923 10.7414C16.2111 10.5226 16.334 10.2258 16.334 9.91642V7.48275L22.851 13.9998L16.334 20.5168Z" fill="black"/>
</svg>
