<svg width="28" height="28" viewBox="0 0 28 28" fill="none" xmlns="http://www.w3.org/2000/svg">
<path d="M26.8492 13.7342C26.812 13.6489 25.902 11.6309 23.8698 9.59875C21.9842 7.71531 18.7445 5.46875 13.9998 5.46875C9.25515 5.46875 6.01546 7.71531 4.12984 9.59875C2.09765 11.6309 1.18765 13.6456 1.15047 13.7342C1.11307 13.8182 1.09375 13.9091 1.09375 14.0011C1.09375 14.093 1.11307 14.184 1.15047 14.268C1.18765 14.3522 2.09765 16.3702 4.12984 18.4023C6.01546 20.2858 9.25515 22.5312 13.9998 22.5312C18.7445 22.5312 21.9842 20.2858 23.8698 18.4023C25.902 16.3702 26.812 14.3555 26.8492 14.268C26.8866 14.184 26.9059 14.093 26.9059 14.0011C26.9059 13.9091 26.8866 13.8182 26.8492 13.7342ZM13.9998 21.2188C10.5677 21.2188 7.57078 19.9697 5.09125 17.5077C4.05183 16.4747 3.17226 15.2924 2.48156 14C3.17206 12.7078 4.05166 11.5259 5.09125 10.4934C7.57078 8.03031 10.5677 6.78125 13.9998 6.78125C17.432 6.78125 20.4289 8.03031 22.9084 10.4934C23.948 11.5259 24.8276 12.7078 25.5181 14C24.8214 15.3355 21.328 21.2188 13.9998 21.2188ZM13.9998 8.96875C13.0048 8.96875 12.032 9.26383 11.2046 9.81667C10.3772 10.3695 9.73238 11.1553 9.35157 12.0746C8.97077 12.994 8.87113 14.0056 9.06527 14.9815C9.2594 15.9575 9.73858 16.854 10.4422 17.5576C11.1458 18.2613 12.0423 18.7404 13.0183 18.9346C13.9943 19.1287 15.0059 19.0291 15.9252 18.6483C16.8446 18.2675 17.6303 17.6226 18.1832 16.7952C18.736 15.9678 19.0311 14.9951 19.0311 14C19.0294 12.6662 18.4987 11.3875 17.5556 10.4443C16.6124 9.50112 15.3337 8.97049 13.9998 8.96875ZM13.9998 17.7188C13.2643 17.7188 12.5454 17.5006 11.9338 17.092C11.3223 16.6834 10.8456 16.1026 10.5642 15.4231C10.2827 14.7436 10.2091 13.9959 10.3525 13.2745C10.496 12.5531 10.8502 11.8905 11.3703 11.3704C11.8904 10.8504 12.553 10.4962 13.2743 10.3527C13.9957 10.2092 14.7434 10.2829 15.4229 10.5643C16.1025 10.8458 16.6832 11.3224 17.0919 11.934C17.5005 12.5455 17.7186 13.2645 17.7186 14C17.7186 14.9863 17.3268 15.9322 16.6294 16.6296C15.932 17.327 14.9861 17.7188 13.9998 17.7188Z" fill="#818181"/>
</svg>
