<svg width="16" height="16" viewBox="0 0 16 16" fill="none" xmlns="http://www.w3.org/2000/svg">
<path d="M15 1.49844L10.9965 1.49845V0.501953C10.9965 0.225703 10.7727 0.00195312 10.4965 0.00195312C10.2203 0.00195312 9.9965 0.225703 9.9965 0.501953V1.4982H5.9965V0.501953C5.9965 0.225703 5.77275 0.00195312 5.4965 0.00195312C5.22025 0.00195312 4.9965 0.225703 4.9965 0.501953V1.4982H1C0.44775 1.4982 0 1.94595 0 2.4982V14.9982C0 15.5504 0.44775 15.9982 1 15.9982H15C15.5522 15.9982 16 15.5504 16 14.9982V2.4982C16 1.94619 15.5522 1.49844 15 1.49844ZM15 14.9982H1V2.4982H4.9965V3.00195C4.9965 3.27819 5.22025 3.50195 5.4965 3.50195C5.77275 3.50195 5.9965 3.27819 5.9965 3.00195V2.49845H9.9965V3.0022C9.9965 3.27845 10.2203 3.5022 10.4965 3.5022C10.7727 3.5022 10.9965 3.27845 10.9965 3.0022V2.49845H15V14.9982ZM11.5 7.99844H12.5C12.776 7.99844 13 7.77444 13 7.49844V6.49844C13 6.22244 12.776 5.99844 12.5 5.99844H11.5C11.224 5.99844 11 6.22244 11 6.49844V7.49844C11 7.77444 11.224 7.99844 11.5 7.99844ZM11.5 11.9982H12.5C12.776 11.9982 13 11.7744 13 11.4982V10.4982C13 10.2222 12.776 9.99819 12.5 9.99819H11.5C11.224 9.99819 11 10.2222 11 10.4982V11.4982C11 11.7747 11.224 11.9982 11.5 11.9982ZM8.5 9.99819H7.5C7.224 9.99819 7 10.2222 7 10.4982V11.4982C7 11.7744 7.224 11.9982 7.5 11.9982H8.5C8.776 11.9982 9 11.7744 9 11.4982V10.4982C9 10.2224 8.776 9.99819 8.5 9.99819ZM8.5 5.99844H7.5C7.224 5.99844 7 6.22244 7 6.49844V7.49844C7 7.77444 7.224 7.99844 7.5 7.99844H8.5C8.776 7.99844 9 7.77444 9 7.49844V6.49844C9 6.22219 8.776 5.99844 8.5 5.99844ZM4.5 5.99844H3.5C3.224 5.99844 3 6.22244 3 6.49844V7.49844C3 7.77444 3.224 7.99844 3.5 7.99844H4.5C4.776 7.99844 5 7.77444 5 7.49844V6.49844C5 6.22219 4.776 5.99844 4.5 5.99844ZM4.5 9.99819H3.5C3.224 9.99819 3 10.2222 3 10.4982V11.4982C3 11.7744 3.224 11.9982 3.5 11.9982H4.5C4.776 11.9982 5 11.7744 5 11.4982V10.4982C5 10.2224 4.776 9.99819 4.5 9.99819Z" fill="#4BC185"/>
</svg>
