<svg width="120" height="120" viewBox="0 0 120 120" fill="none" xmlns="http://www.w3.org/2000/svg">
<path fill-rule="evenodd" clip-rule="evenodd" d="M60 10C87.615 10 110 32.385 110 60C110.018 71.5395 106.027 82.7269 98.7101 91.65L98.81 91.76L98.15 92.32C93.4612 97.8661 87.618 102.322 81.0286 105.375C74.4392 108.429 67.2626 110.007 60 110C45.25 110 32.0001 103.615 22.8501 93.465L21.8501 92.315L21.1901 91.765L21.2901 91.645C13.9738 82.7234 9.98316 71.5378 10.0001 60C10.0001 32.385 32.385 10 60 10ZM60 85C50.7 85 42.295 87.96 36.035 92.03C42.9471 97.2164 51.3586 100.014 60 100C68.6415 100.014 77.053 97.2164 83.965 92.03C76.8119 87.4463 68.4958 85.0069 60 85ZM60 20C52.4727 19.9998 45.098 22.1236 38.7237 26.1273C32.3493 30.1309 27.2341 35.852 23.9659 42.6329C20.6976 49.4137 19.4091 56.9792 20.2483 64.4596C21.0875 71.9401 24.0205 79.0319 28.7101 84.92C36.8151 79.105 47.875 75 60 75C72.125 75 83.185 79.105 91.29 84.92C95.9796 79.0319 98.9126 71.9401 99.7518 64.4596C100.591 56.9792 99.3025 49.4137 96.0342 42.6329C92.766 35.852 87.6508 30.1309 81.2764 26.1273C74.9021 22.1236 67.5274 19.9998 60 20ZM60 30C65.3044 30 70.3915 32.1071 74.1422 35.8579C77.8929 39.6086 80 44.6957 80 50C80 55.3043 77.8929 60.3914 74.1422 64.1421C70.3915 67.8929 65.3044 70 60 70C54.6957 70 49.6086 67.8929 45.8579 64.1421C42.1072 60.3914 40 55.3043 40 50C40 44.6957 42.1072 39.6086 45.8579 35.8579C49.6086 32.1071 54.6957 30 60 30ZM60 40C57.3479 40 54.8043 41.0536 52.929 42.9289C51.0536 44.8043 50 47.3478 50 50C50 52.6522 51.0536 55.1957 52.929 57.0711C54.8043 58.9464 57.3479 60 60 60C62.6522 60 65.1958 58.9464 67.0711 57.0711C68.9465 55.1957 70 52.6522 70 50C70 47.3478 68.9465 44.8043 67.0711 42.9289C65.1958 41.0536 62.6522 40 60 40Z" fill="black"/>
</svg>
