<svg width="38" height="38" viewBox="0 0 38 38" fill="none" xmlns="http://www.w3.org/2000/svg">
<g clip-path="url(#clip0_40_1360)">
<path fill-rule="evenodd" clip-rule="evenodd" d="M8.44444 0C6.20484 0 4.05696 0.88968 2.47332 2.47332C0.88968 4.05696 0 6.20484 0 8.44444V29.5556C0 31.7952 0.88968 33.943 2.47332 35.5267C4.05696 37.1103 6.20484 38 8.44444 38H29.5556C31.7952 38 33.943 37.1103 35.5267 35.5267C37.1103 33.943 38 31.7952 38 29.5556V8.44444C38 6.20484 37.1103 4.05696 35.5267 2.47332C33.943 0.88968 31.7952 0 29.5556 0H8.44444ZM30.2564 14.8939C30.5672 14.4281 30.6802 13.8579 30.5705 13.3087C30.4608 12.7596 30.1375 12.2765 29.6717 11.9658C29.2058 11.655 28.6356 11.5421 28.0865 11.6517C27.5374 11.7614 27.0543 12.0847 26.7436 12.5506C25.9962 13.5428 25.213 14.4928 24.2968 15.3372C23.2349 16.3168 22.1603 17.0514 21.1132 17.4863L21.0963 13.4752C21.0358 12.9617 20.789 12.4882 20.4026 12.1446C20.0162 11.801 19.5171 11.6112 19 11.6111C17.8558 11.6766 16.8889 12.521 16.8889 13.7222V22.9541C12.7764 21.8141 10.5556 17.8241 10.5556 13.7222C10.5556 13.1623 10.3331 12.6254 9.93723 12.2294C9.54132 11.8335 9.00435 11.6111 8.44444 11.6111C7.88454 11.6111 7.34757 11.8335 6.95166 12.2294C6.55575 12.6254 6.33333 13.1623 6.33333 13.7222C6.33333 21.3898 11.6322 27.4444 19 27.4444C19.5599 27.4444 20.0969 27.222 20.4928 26.8261C20.8887 26.4302 21.1111 25.8932 21.1111 25.3333V22.0337C23.9231 22.2574 26.6507 24.244 27.6682 26.277C27.7868 26.5337 27.9557 26.7639 28.1649 26.954C28.3742 27.1442 28.6195 27.2904 28.8863 27.3839C29.1531 27.4774 29.436 27.5164 29.7181 27.4986C30.0003 27.4807 30.276 27.4064 30.5289 27.2799C30.7817 27.1535 31.0066 26.9775 31.1902 26.7625C31.3738 26.5475 31.5123 26.2978 31.5976 26.0282C31.6828 25.7587 31.7131 25.4747 31.6865 25.1933C31.6599 24.9118 31.5771 24.6385 31.4429 24.3897C30.4338 22.3693 28.5507 20.4799 26.2327 19.247C26.5451 18.9916 26.8554 18.7213 27.1616 18.4406C28.3247 17.3798 29.363 16.1899 30.2564 14.8939Z" fill="#3054D6" fill-opacity="0.8"/>
</g>
<defs>
<clipPath id="clip0_40_1360">
<rect width="38" height="38" fill="white"/>
</clipPath>
</defs>
</svg>
