<svg width="38" height="38" viewBox="0 0 38 38" fill="none" xmlns="http://www.w3.org/2000/svg">
<path d="M6.73314 0C3.00322 0 0 3.00322 0 6.73314V31.2669C0 34.9968 3.00322 38 6.73314 38H24.7903L38 19.0048L24.7903 3.8e-05L6.73314 0ZM16.8447 6.93739H21.1351C21.3986 6.93739 21.5496 7.03372 21.5496 7.26039V30.9059C21.5496 31.0668 21.4738 31.1636 21.2479 31.1636H18.9145C18.765 31.1636 18.6521 31.0345 18.6521 30.9379V22.1837H16.7687L11.5378 30.9379C11.4627 31.099 11.3123 31.1636 11.0865 31.1636H8.41461C8.11441 31.1636 7.92615 30.938 8.11418 30.647L13.8712 21.7313C10.7861 20.5684 9.05468 18.2103 9.05468 15.0124C9.05468 9.68232 12.6301 6.93736 16.8447 6.93736L16.8447 6.93739ZM16.7319 9.00364C14.4362 9.00364 12.1778 10.651 12.1778 14.6894C12.1778 18.5658 14.5866 20.1163 17.0703 20.1163H18.6521V9.00364H16.7319Z" fill="black"/>
</svg>
