<svg width="81" height="80" viewBox="0 0 81 80" fill="none" xmlns="http://www.w3.org/2000/svg">
<g clip-path="url(#clip0_1446_39)">
<path d="M40.5009 4.44531C33.4687 4.44531 26.5944 6.53061 20.7473 10.4375C14.9002 14.3444 10.3429 19.8974 7.65183 26.3943C4.96072 32.8913 4.2566 40.0403 5.62852 46.9374C7.00044 53.8345 10.3868 60.1699 15.3593 65.1424C20.3318 70.115 26.6672 73.5013 33.5643 74.8732C40.4614 76.2452 47.6105 75.541 54.1074 72.8499C60.6043 70.1588 66.1574 65.6016 70.0643 59.7545C73.9711 53.9074 76.0564 47.0331 76.0564 40.0009C76.0564 30.5709 72.3104 21.5273 65.6425 14.8593C58.9745 8.19133 49.9308 4.44531 40.5009 4.44531ZM63.7231 28.0675L34.5231 57.2453L17.2787 40.0009C16.6893 39.4115 16.3582 38.6121 16.3582 37.7786C16.3582 36.9452 16.6893 36.1458 17.2787 35.5564C17.868 34.9671 18.6674 34.636 19.5009 34.636C20.3344 34.636 21.1337 34.9671 21.7231 35.5564L34.5676 48.4009L59.3231 23.6675C59.6149 23.3757 59.9614 23.1442 60.3427 22.9863C60.724 22.8284 61.1326 22.7471 61.5453 22.7471C61.958 22.7471 62.3667 22.8284 62.748 22.9863C63.1293 23.1442 63.4757 23.3757 63.7676 23.6675C64.0594 23.9594 64.2909 24.3058 64.4488 24.6871C64.6067 25.0684 64.688 25.4771 64.688 25.8898C64.688 26.3025 64.6067 26.7111 64.4488 27.0924C64.2909 27.4737 64.0594 27.8202 63.7676 28.112L63.7231 28.0675Z" fill="#7DA78A"/>
</g>
<defs>
<clipPath id="clip0_1446_39">
<rect width="80" height="80" fill="white" transform="translate(0.5)"/>
</clipPath>
</defs>
</svg>
